<svg width="25" height="24" viewBox="0 0 25 24" fill="none" xmlns="http://www.w3.org/2000/svg">
<path d="M12.5874 1.5C9.81309 1.53366 7.16188 2.65072 5.2 4.6126C3.23812 6.57448 2.12106 9.22568 2.0874 12C2.12106 14.7743 3.23812 17.4255 5.2 19.3874C7.16188 21.3493 9.81309 22.4663 12.5874 22.5C15.3617 22.4663 18.0129 21.3493 19.9748 19.3874C21.9367 17.4255 23.0537 14.7743 23.0874 12C23.0537 9.22568 21.9367 6.57448 19.9748 4.6126C18.0129 2.65072 15.3617 1.53366 12.5874 1.5ZM18.5874 12.75H13.3374V18H11.8374V12.75H6.5874V11.25H11.8374V6H13.3374V11.25H18.5874V12.75Z" fill="#4ECB71"/>
</svg>
