<svg width="31" height="34" viewBox="0 0 31 34" fill="none" xmlns="http://www.w3.org/2000/svg">
<path d="M9.95764 10.1979H26.8326M9.95764 17.4167H26.8326M9.95764 24.6354H26.8326" stroke="#555555" stroke-linecap="round" stroke-linejoin="round"/>
<path d="M5.27014 11.2292C5.78791 11.2292 6.20764 10.7675 6.20764 10.1979C6.20764 9.62839 5.78791 9.16669 5.27014 9.16669C4.75237 9.16669 4.33264 9.62839 4.33264 10.1979C4.33264 10.7675 4.75237 11.2292 5.27014 11.2292Z" stroke="#555555" stroke-linecap="round" stroke-linejoin="round"/>
<path d="M5.27014 18.448C5.78791 18.448 6.20764 17.9863 6.20764 17.4167C6.20764 16.8472 5.78791 16.3855 5.27014 16.3855C4.75237 16.3855 4.33264 16.8472 4.33264 17.4167C4.33264 17.9863 4.75237 18.448 5.27014 18.448Z" stroke="#555555" stroke-linecap="round" stroke-linejoin="round"/>
<path d="M5.27014 25.6667C5.78791 25.6667 6.20764 25.205 6.20764 24.6354C6.20764 24.0659 5.78791 23.6042 5.27014 23.6042C4.75237 23.6042 4.33264 24.0659 4.33264 24.6354C4.33264 25.205 4.75237 25.6667 5.27014 25.6667Z" stroke="#555555" stroke-linecap="round" stroke-linejoin="round"/>
</svg>
