<svg width="167" height="54" viewBox="0 0 167 54" fill="none" xmlns="http://www.w3.org/2000/svg">
<path d="M26.774 13.4168C26.774 20.7937 20.7939 26.7738 13.4171 26.7738C6.04019 26.7738 0.0600586 20.7937 0.0600586 13.4168C0.0600586 6.03995 6.04019 0.0598145 13.4171 0.0598145C20.7939 0.0598145 26.774 6.03995 26.774 13.4168Z" fill="#28FFD8"/>
<path d="M53.4879 13.4168C53.4879 20.7937 47.5078 26.7738 40.1309 26.7738C32.7541 26.7738 26.7739 20.7937 26.7739 13.4168C26.7739 6.03995 32.7541 0.0598145 40.1309 0.0598145C47.5078 0.0598145 53.4879 6.03995 53.4879 13.4168Z" fill="#D9D9D9"/>
<path fill-rule="evenodd" clip-rule="evenodd" d="M39.651 0.00841755C39.8103 0.00282141 39.9702 0 40.1308 0C40.2913 0 40.4513 0.00282146 40.6105 0.00841767L40.6063 0.128137C40.4485 0.12259 40.2899 0.119794 40.1308 0.119794C39.9716 0.119794 39.8131 0.12259 39.6552 0.128137L39.651 0.00841755ZM37.7474 0.211066C38.06 0.155017 38.3764 0.109797 38.6961 0.0758089L38.7088 0.194931C38.3919 0.228617 38.0783 0.273433 37.7685 0.328979L37.7474 0.211066ZM41.5654 0.0758093C41.8852 0.109798 42.2015 0.155017 42.5141 0.211066L42.493 0.32898C42.1832 0.273433 41.8696 0.228618 41.5528 0.194932L41.5654 0.0758093ZM35.8922 0.683291C36.1941 0.582852 36.5007 0.492848 36.8117 0.413707L36.8412 0.5298C36.5331 0.60823 36.2292 0.697424 35.93 0.796959L35.8922 0.683291ZM43.4498 0.413707C43.7608 0.492849 44.0675 0.582852 44.3694 0.683291L44.3315 0.796959C44.0324 0.697424 43.7285 0.60823 43.4203 0.529801L43.4498 0.413707ZM34.1238 1.41659C34.4085 1.27378 34.699 1.1408 34.9949 1.0181L35.0408 1.12876C34.7476 1.25035 34.4597 1.38214 34.1775 1.52367L34.1238 1.41659ZM45.2666 1.01811C45.5625 1.1408 45.853 1.27378 46.1378 1.41659L46.0841 1.52367C45.8019 1.38214 45.5139 1.25035 45.2207 1.12876L45.2666 1.01811ZM32.4782 2.39495C32.74 2.21284 33.0086 2.03982 33.2835 1.87635L33.3448 1.97932C33.0723 2.14133 32.8061 2.31281 32.5466 2.49329L32.4782 2.39495ZM46.978 1.87635C47.2529 2.03983 47.5215 2.21285 47.7833 2.39495L47.7149 2.49329C47.4555 2.31281 47.1892 2.14133 46.9168 1.97932L46.978 1.87635ZM30.9882 3.59708C31.2218 3.37951 31.4632 3.17017 31.7119 2.96953L31.7871 3.06276C31.5406 3.26162 31.3014 3.4691 31.0699 3.68474L30.9882 3.59708ZM48.5497 2.96954C48.7983 3.17018 49.0397 3.37951 49.2733 3.59708L49.1916 3.68474C48.9601 3.4691 48.7209 3.26162 48.4745 3.06277L48.5497 2.96954ZM29.6834 4.99798C29.884 4.74931 30.0934 4.50795 30.3109 4.27437L30.3986 4.35602C30.183 4.58753 29.9755 4.82675 29.7766 5.0732L29.6834 4.99798ZM49.9506 4.27437C50.1681 4.50796 50.3775 4.74932 50.5781 4.99798L50.4849 5.07321C50.286 4.82675 50.0786 4.58753 49.8629 4.35602L49.9506 4.27437ZM28.5902 6.56966C28.7537 6.29472 28.9267 6.02613 29.1088 5.76433L29.2072 5.83274C29.0267 6.09221 28.8552 6.3584 28.6932 6.63088L28.5902 6.56966ZM51.1527 5.76434C51.3348 6.02613 51.5078 6.29473 51.6713 6.56966L51.5683 6.63089C51.4063 6.35841 51.2348 6.09221 51.0544 5.83274L51.1527 5.76434ZM27.732 8.28105C27.8547 7.98518 27.9876 7.69464 28.1305 7.4099L28.2375 7.4636C28.096 7.7458 27.9642 8.03372 27.8426 8.32694L27.732 8.28105ZM52.1311 7.4099C52.2739 7.69465 52.4069 7.98518 52.5296 8.28105L52.4189 8.32694C52.2973 8.03372 52.1655 7.7458 52.024 7.46361L52.1311 7.4099ZM27.1276 10.0978C27.2067 9.78684 27.2967 9.48019 27.3972 9.17831L27.5108 9.21612C27.4113 9.51529 27.3221 9.81918 27.2437 10.1274L27.1276 10.0978ZM52.8644 9.17831C52.9648 9.48019 53.0548 9.78684 53.1339 10.0978L53.0179 10.1274C52.9394 9.81918 52.8502 9.51529 52.7507 9.21612L52.8644 9.17831ZM26.7897 11.9822C26.8237 11.6625 26.8689 11.3461 26.9249 11.0335L27.0428 11.0546C26.9873 11.3645 26.9425 11.678 26.9088 11.9949L26.7897 11.9822ZM53.3366 11.0335C53.3926 11.3461 53.4379 11.6625 53.4718 11.9822L53.3527 11.9949C53.319 11.678 53.2742 11.3645 53.2187 11.0547L53.3366 11.0335ZM26.7139 13.4169C26.7139 13.2563 26.7167 13.0964 26.7223 12.9372L26.842 12.9414C26.8365 13.0992 26.8337 13.2577 26.8337 13.4169C26.8337 13.5761 26.8365 13.7346 26.842 13.8924L26.7223 13.8966C26.7167 13.7374 26.7139 13.5775 26.7139 13.4169ZM53.5392 12.9372C53.5448 13.0964 53.5477 13.2563 53.5477 13.4169C53.5477 13.5775 53.5448 13.7374 53.5392 13.8966L53.4195 13.8924C53.4251 13.7346 53.4279 13.5761 53.4279 13.4169C53.4279 13.2577 53.4251 13.0992 53.4195 12.9414L53.5392 12.9372ZM26.9249 15.8003C26.8689 15.4877 26.8237 15.1713 26.7897 14.8516L26.9088 14.8389C26.9425 15.1558 26.9873 15.4693 27.0428 15.7791L26.9249 15.8003ZM53.4718 14.8516C53.4379 15.1713 53.3926 15.4877 53.3366 15.8003L53.2187 15.7791C53.2742 15.4693 53.319 15.1558 53.3527 14.8389L53.4718 14.8516ZM27.3972 17.6555C27.2967 17.3536 27.2067 17.0469 27.1276 16.736L27.2437 16.7064C27.3221 17.0146 27.4113 17.3185 27.5108 17.6177L27.3972 17.6555ZM53.1339 16.736C53.0548 17.0469 52.9648 17.3536 52.8644 17.6555L52.7507 17.6177C52.8502 17.3185 52.9394 17.0146 53.0179 16.7064L53.1339 16.736ZM28.1305 19.4239C27.9876 19.1391 27.8547 18.8486 27.732 18.5527L27.8426 18.5068C27.9642 18.8001 28.096 19.088 28.2375 19.3702L28.1305 19.4239ZM52.5295 18.5527C52.4069 18.8486 52.2739 19.1391 52.1311 19.4239L52.024 19.3702C52.1655 19.088 52.2973 18.8001 52.4189 18.5068L52.5295 18.5527ZM29.1088 21.0695C28.9267 20.8077 28.7537 20.5391 28.5902 20.2641L28.6932 20.2029C28.8552 20.4754 29.0267 20.7416 29.2072 21.001L29.1088 21.0695ZM51.6713 20.2641C51.5078 20.5391 51.3348 20.8077 51.1527 21.0695L51.0544 21.001C51.2348 20.7416 51.4063 20.4754 51.5683 20.2029L51.6713 20.2641ZM30.3109 22.5594C30.0934 22.3258 29.884 22.0845 29.6834 21.8358L29.7766 21.7606C29.9755 22.007 30.183 22.2463 30.3986 22.4778L30.3109 22.5594ZM50.5781 21.8358C50.3775 22.0845 50.1681 22.3258 49.9506 22.5594L49.8629 22.4778C50.0786 22.2463 50.286 22.007 50.4849 21.7606L50.5781 21.8358ZM31.7118 23.8643C31.4632 23.6636 31.2218 23.4543 30.9882 23.2367L31.0699 23.149C31.3014 23.3647 31.5406 23.5722 31.7871 23.771L31.7118 23.8643ZM49.2733 23.2367C49.0397 23.4543 48.7983 23.6636 48.5497 23.8643L48.4744 23.771C48.7209 23.5722 48.9601 23.3647 49.1916 23.149L49.2733 23.2367ZM33.2835 24.9574C33.0086 24.794 32.74 24.6209 32.4782 24.4388L32.5466 24.3405C32.8061 24.521 33.0723 24.6925 33.3447 24.8545L33.2835 24.9574ZM47.7833 24.4388C47.5215 24.6209 47.2529 24.794 46.978 24.9574L46.9168 24.8545C47.1892 24.6925 47.4554 24.521 47.7149 24.3405L47.7833 24.4388ZM34.9949 25.8157C34.699 25.693 34.4085 25.56 34.1238 25.4172L34.1775 25.3101C34.4597 25.4517 34.7476 25.5834 35.0408 25.705L34.9949 25.8157ZM46.1378 25.4172C45.853 25.56 45.5625 25.693 45.2666 25.8157L45.2207 25.705C45.5139 25.5834 45.8019 25.4517 46.084 25.3101L46.1378 25.4172ZM36.8117 26.4201C36.5007 26.3409 36.1941 26.2509 35.8922 26.1505L35.93 26.0368C36.2292 26.1364 36.533 26.2256 36.8412 26.304L36.8117 26.4201ZM44.3693 26.1505C44.0675 26.2509 43.7608 26.3409 43.4498 26.4201L43.4203 26.304C43.7285 26.2256 44.0324 26.1364 44.3315 26.0368L44.3693 26.1505ZM38.6961 26.758C38.3764 26.724 38.06 26.6788 37.7474 26.6227L37.7685 26.5048C38.0783 26.5604 38.3919 26.6052 38.7088 26.6389L38.6961 26.758ZM42.5141 26.6227C42.2015 26.6788 41.8852 26.724 41.5654 26.758L41.5528 26.6389C41.8696 26.6052 42.1832 26.5604 42.493 26.5048L42.5141 26.6227ZM40.1308 26.8338C39.9702 26.8338 39.8102 26.831 39.651 26.8254L39.6552 26.7056C39.8131 26.7112 39.9716 26.714 40.1308 26.714C40.2899 26.714 40.4485 26.7112 40.6063 26.7056L40.6105 26.8254C40.4513 26.831 40.2913 26.8338 40.1308 26.8338Z" fill="black"/>
<path d="M26.774 40.1309C26.774 47.5078 20.7939 53.4879 13.4171 53.4879C6.04019 53.4879 0.0600586 47.5078 0.0600586 40.1309C0.0600586 32.7541 6.04019 26.7739 13.4171 26.7739C20.7939 26.7739 26.774 32.7541 26.774 40.1309Z" fill="#D9D9D9"/>
<path fill-rule="evenodd" clip-rule="evenodd" d="M12.9372 26.7224C13.0964 26.7168 13.2563 26.714 13.4169 26.714C13.5775 26.714 13.7374 26.7168 13.8966 26.7224L13.8924 26.8421C13.7346 26.8366 13.5761 26.8338 13.4169 26.8338C13.2577 26.8338 13.0992 26.8366 12.9414 26.8421L12.9372 26.7224ZM11.0335 26.9251C11.3461 26.869 11.6625 26.8238 11.9822 26.7898L11.9949 26.9089C11.678 26.9426 11.3645 26.9874 11.0547 27.043L11.0335 26.9251ZM14.8516 26.7898C15.1713 26.8238 15.4877 26.869 15.8003 26.9251L15.7791 27.043C15.4693 26.9874 15.1558 26.9426 14.8389 26.9089L14.8516 26.7898ZM9.17831 27.3973C9.48019 27.2968 9.78684 27.2068 10.0978 27.1277L10.1274 27.2438C9.81918 27.3222 9.51529 27.4114 9.21612 27.5109L9.17831 27.3973ZM16.736 27.1277C17.0469 27.2068 17.3536 27.2968 17.6555 27.3973L17.6177 27.5109C17.3185 27.4114 17.0146 27.3222 16.7064 27.2438L16.736 27.1277ZM7.4099 28.1306C7.69465 27.9878 7.98518 27.8548 8.28105 27.7321L8.32694 27.8428C8.03372 27.9643 7.7458 28.0961 7.46361 28.2377L7.4099 28.1306ZM18.5527 27.7321C18.8486 27.8548 19.1391 27.9878 19.4239 28.1306L19.3702 28.2377C19.088 28.0961 18.8001 27.9643 18.5068 27.8428L18.5527 27.7321ZM5.76434 29.1089C6.02613 28.9268 6.29473 28.7538 6.56966 28.5903L6.63089 28.6933C6.35841 28.8553 6.09221 29.0268 5.83274 29.2073L5.76434 29.1089ZM20.2641 28.5903C20.5391 28.7538 20.8077 28.9268 21.0695 29.1089L21.001 29.2073C20.7416 29.0268 20.4754 28.8553 20.2029 28.6933L20.2641 28.5903ZM4.27437 30.3111C4.50796 30.0935 4.74932 29.8842 4.99798 29.6835L5.07321 29.7768C4.82675 29.9756 4.58753 30.1831 4.35602 30.3987L4.27437 30.3111ZM21.8358 29.6835C22.0845 29.8842 22.3258 30.0935 22.5594 30.3111L22.4778 30.3987C22.2463 30.1831 22.007 29.9756 21.7606 29.7768L21.8358 29.6835ZM2.96954 31.712C3.17018 31.4633 3.37951 31.2219 3.59708 30.9884L3.68474 31.07C3.4691 31.3015 3.26162 31.5407 3.06277 31.7872L2.96954 31.712ZM23.2367 30.9884C23.4543 31.2219 23.6636 31.4633 23.8643 31.712L23.771 31.7872C23.5722 31.5407 23.3647 31.3015 23.149 31.07L23.2367 30.9884ZM1.87635 33.2836C2.03983 33.0087 2.21285 32.7401 2.39495 32.4783L2.49329 32.5467C2.31281 32.8062 2.14133 33.0724 1.97932 33.3449L1.87635 33.2836ZM24.4388 32.4783C24.6209 32.7401 24.794 33.0087 24.9574 33.2837L24.8545 33.3449C24.6925 33.0724 24.521 32.8062 24.3405 32.5467L24.4388 32.4783ZM1.01811 34.995C1.1408 34.6992 1.27378 34.4086 1.41659 34.1239L1.52367 34.1776C1.38214 34.4598 1.25035 34.7477 1.12876 35.0409L1.01811 34.995ZM25.4172 34.1239C25.56 34.4086 25.693 34.6992 25.8157 34.995L25.705 35.0409C25.5834 34.7477 25.4517 34.4598 25.3101 34.1776L25.4172 34.1239ZM0.413707 36.8118C0.492849 36.5008 0.582852 36.1942 0.683291 35.8923L0.796959 35.9301C0.697424 36.2293 0.60823 36.5332 0.529801 36.8414L0.413707 36.8118ZM26.1505 35.8923C26.2509 36.1942 26.3409 36.5008 26.4201 36.8118L26.304 36.8414C26.2256 36.5332 26.1364 36.2293 26.0368 35.9301L26.1505 35.8923ZM0.0758093 38.6962C0.109798 38.3765 0.155017 38.0601 0.211066 37.7475L0.32898 37.7686C0.273433 38.0785 0.228618 38.392 0.194932 38.7089L0.0758093 38.6962ZM26.6227 37.7475C26.6788 38.0601 26.724 38.3765 26.758 38.6962L26.6389 38.7089C26.6052 38.392 26.5604 38.0785 26.5048 37.7686L26.6227 37.7475ZM0 40.1309C0 39.9703 0.00282146 39.8104 0.00841767 39.6511L0.128137 39.6554C0.12259 39.8132 0.119794 39.9717 0.119794 40.1309C0.119794 40.2901 0.12259 40.4486 0.128137 40.6064L0.00841755 40.6106C0.00282141 40.4514 0 40.2915 0 40.1309ZM26.8254 39.6511C26.831 39.8104 26.8338 39.9703 26.8338 40.1309C26.8338 40.2915 26.831 40.4514 26.8254 40.6106L26.7056 40.6064C26.7112 40.4486 26.714 40.2901 26.714 40.1309C26.714 39.9717 26.7112 39.8132 26.7056 39.6554L26.8254 39.6511ZM0.211066 42.5143C0.155017 42.2016 0.109797 41.8853 0.0758089 41.5656L0.194931 41.5529C0.228617 41.8698 0.273433 42.1833 0.328979 42.4931L0.211066 42.5143ZM26.758 41.5656C26.724 41.8853 26.6788 42.2016 26.6227 42.5143L26.5048 42.4931C26.5604 42.1833 26.6052 41.8698 26.6389 41.5529L26.758 41.5656ZM0.683291 44.3695C0.582852 44.0676 0.492848 43.7609 0.413707 43.4499L0.5298 43.4204C0.60823 43.7286 0.697424 44.0325 0.796959 44.3317L0.683291 44.3695ZM26.4201 43.4499C26.3409 43.7609 26.2509 44.0676 26.1505 44.3695L26.0368 44.3317C26.1364 44.0325 26.2256 43.7286 26.304 43.4204L26.4201 43.4499ZM1.41659 46.1379C1.27378 45.8531 1.1408 45.5626 1.0181 45.2667L1.12876 45.2208C1.25035 45.5141 1.38214 45.802 1.52367 46.0842L1.41659 46.1379ZM25.8157 45.2667C25.693 45.5626 25.56 45.8531 25.4172 46.1379L25.3101 46.0842C25.4517 45.802 25.5834 45.5141 25.705 45.2208L25.8157 45.2667ZM2.39495 47.7834C2.21284 47.5216 2.03982 47.253 1.87635 46.9781L1.97932 46.9169C2.14133 47.1894 2.31281 47.4556 2.49329 47.715L2.39495 47.7834ZM24.9574 46.9781C24.794 47.2531 24.6209 47.5216 24.4388 47.7834L24.3405 47.715C24.521 47.4556 24.6925 47.1894 24.8545 46.9169L24.9574 46.9781ZM3.59708 49.2734C3.37951 49.0398 3.17017 48.7985 2.96953 48.5498L3.06276 48.4746C3.26162 48.721 3.4691 48.9602 3.68474 49.1918L3.59708 49.2734ZM23.8643 48.5498C23.6636 48.7985 23.4543 49.0398 23.2367 49.2734L23.149 49.1918C23.3647 48.9602 23.5722 48.721 23.771 48.4746L23.8643 48.5498ZM4.99798 50.5782C4.74931 50.3776 4.50795 50.1683 4.27437 49.9507L4.35602 49.863C4.58753 50.0787 4.82675 50.2862 5.0732 50.485L4.99798 50.5782ZM22.5594 49.9507C22.3258 50.1683 22.0845 50.3776 21.8358 50.5782L21.7606 50.485C22.007 50.2862 22.2463 50.0787 22.4778 49.863L22.5594 49.9507ZM6.56966 51.6714C6.29472 51.5079 6.02613 51.3349 5.76433 51.1528L5.83274 51.0545C6.09221 51.235 6.3584 51.4064 6.63088 51.5685L6.56966 51.6714ZM21.0695 51.1528C20.8077 51.3349 20.5391 51.508 20.2641 51.6714L20.2029 51.5685C20.4754 51.4064 20.7416 51.235 21.001 51.0545L21.0695 51.1528ZM8.28105 52.5297C7.98518 52.407 7.69464 52.274 7.4099 52.1312L7.4636 52.0241C7.7458 52.1656 8.03372 52.2974 8.32694 52.419L8.28105 52.5297ZM19.4239 52.1312C19.1391 52.274 18.8486 52.407 18.5527 52.5297L18.5068 52.419C18.8001 52.2974 19.088 52.1656 19.3702 52.0241L19.4239 52.1312ZM10.0978 53.1341C9.78684 53.0549 9.48019 52.9649 9.17831 52.8645L9.21612 52.7508C9.51529 52.8504 9.81918 52.9395 10.1274 53.018L10.0978 53.1341ZM17.6555 52.8645C17.3536 52.9649 17.0469 53.0549 16.736 53.1341L16.7064 53.018C17.0146 52.9395 17.3185 52.8504 17.6177 52.7508L17.6555 52.8645ZM11.9822 53.472C11.6625 53.438 11.3461 53.3928 11.0335 53.3367L11.0546 53.2188C11.3645 53.2743 11.678 53.3192 11.9949 53.3528L11.9822 53.472ZM15.8003 53.3367C15.4877 53.3928 15.1713 53.438 14.8516 53.472L14.8389 53.3528C15.1558 53.3192 15.4693 53.2743 15.7791 53.2188L15.8003 53.3367ZM13.4169 53.5478C13.2563 53.5478 13.0964 53.545 12.9372 53.5394L12.9414 53.4196C13.0992 53.4252 13.2577 53.428 13.4169 53.428C13.5761 53.428 13.7346 53.4252 13.8924 53.4196L13.8966 53.5394C13.7374 53.545 13.5775 53.5478 13.4169 53.5478Z" fill="black"/>
<path d="M53.4879 40.1309C53.4879 47.5078 47.5078 53.4879 40.1309 53.4879C32.7541 53.4879 26.7739 47.5078 26.7739 40.1309C26.7739 32.7541 32.7541 26.7739 40.1309 26.7739C47.5078 26.7739 53.4879 32.7541 53.4879 40.1309Z" fill="#D9D9D9"/>
<path d="M162.839 33.178C162.02 33.178 161.287 32.9991 160.641 32.6414C160.007 32.2837 159.51 31.7702 159.153 31.101C158.795 30.4202 158.616 29.6124 158.616 28.6778C158.616 27.7431 158.795 26.9412 159.153 26.2719C159.51 25.5911 160.001 25.0719 160.624 24.7142C161.247 24.3565 161.957 24.1776 162.753 24.1776C163.561 24.1776 164.247 24.3507 164.813 24.6969C165.39 25.043 165.828 25.5161 166.128 26.1162C166.428 26.7046 166.578 27.3681 166.578 28.1066C166.578 28.3028 166.572 28.4816 166.561 28.6432C166.549 28.8047 166.532 28.949 166.509 29.0759H159.516V27.847H165.903L165.193 27.9855C165.193 27.1547 164.963 26.5142 164.501 26.0642C164.051 25.6142 163.457 25.3892 162.718 25.3892C162.153 25.3892 161.662 25.5219 161.247 25.7873C160.843 26.0411 160.526 26.4162 160.295 26.9123C160.076 27.397 159.966 27.9855 159.966 28.6778C159.966 29.3586 160.082 29.9471 160.312 30.4432C160.543 30.9394 160.866 31.3202 161.282 31.5856C161.709 31.8395 162.216 31.9664 162.805 31.9664C163.439 31.9664 163.953 31.8452 164.345 31.6029C164.749 31.3606 165.072 31.0317 165.315 30.6163L166.405 31.2567C166.186 31.6491 165.903 31.9895 165.557 32.2779C165.222 32.5664 164.824 32.7914 164.363 32.953C163.913 33.103 163.405 33.178 162.839 33.178Z" fill="black"/>
<path d="M149.941 33.1781C149.387 33.1781 148.862 33.0742 148.366 32.8665C147.882 32.6588 147.483 32.3242 147.172 31.8627C146.872 31.3896 146.722 30.778 146.722 30.028V24.3508H148.107V29.6645C148.107 30.5415 148.297 31.1473 148.678 31.4819C149.059 31.805 149.595 31.9665 150.287 31.9665C150.611 31.9665 150.928 31.9146 151.239 31.8107C151.551 31.6953 151.828 31.5223 152.07 31.2915C152.324 31.0492 152.52 30.7434 152.659 30.3741C152.809 30.0049 152.884 29.5664 152.884 29.0587V24.3508H154.268V33.005H153.057L152.97 31.6896C152.67 32.2088 152.261 32.5896 151.741 32.8319C151.234 33.0627 150.634 33.1781 149.941 33.1781Z" fill="black"/>
<path d="M141.102 20.3699V30.8068C141.102 31.2453 141.183 31.5511 141.345 31.7242C141.506 31.8857 141.766 31.9665 142.124 31.9665C142.354 31.9665 142.545 31.9492 142.695 31.9146C142.845 31.8799 143.047 31.8165 143.301 31.7242L143.076 32.9358C142.891 33.0165 142.689 33.0742 142.47 33.1088C142.251 33.155 142.026 33.1781 141.795 33.1781C141.091 33.1781 140.566 32.9877 140.22 32.6069C139.885 32.2261 139.718 31.6434 139.718 30.8587V20.3699H141.102Z" fill="black"/>
<path d="M131.445 33.1781C130.961 33.1781 130.511 33.0915 130.095 32.9184C129.68 32.7454 129.322 32.503 129.022 32.1915C128.722 31.8799 128.497 31.528 128.347 31.1357L128.538 30.8934L128.416 33.005H127.205V20.3699H128.59V26.3066L128.416 26.047C128.647 25.5047 129.034 25.0604 129.576 24.7143C130.13 24.3566 130.759 24.1777 131.463 24.1777C132.178 24.1777 132.836 24.3566 133.436 24.7143C134.036 25.072 134.515 25.5855 134.872 26.2547C135.23 26.924 135.409 27.7317 135.409 28.6779C135.409 29.6125 135.224 30.4203 134.855 31.1011C134.497 31.7703 134.019 32.2838 133.419 32.6415C132.819 32.9992 132.161 33.1781 131.445 33.1781ZM131.307 31.9665C132.161 31.9665 132.824 31.6665 133.297 31.0664C133.782 30.4664 134.024 29.6702 134.024 28.6779C134.024 27.6855 133.788 26.8894 133.315 26.2893C132.842 25.6893 132.178 25.3893 131.324 25.3893C130.782 25.3893 130.303 25.5278 129.888 25.8047C129.484 26.0816 129.166 26.4682 128.936 26.9644C128.705 27.4605 128.59 28.0433 128.59 28.7125C128.59 29.3702 128.699 29.9472 128.918 30.4433C129.149 30.928 129.466 31.303 129.87 31.5684C130.286 31.8338 130.765 31.9665 131.307 31.9665Z" fill="black"/>
<path d="M114.758 33.0049V24.3507H115.969L116.091 26.2892L115.866 26.0988C116.05 25.6373 116.298 25.268 116.61 24.9911C116.921 24.7026 117.279 24.4949 117.683 24.368C118.098 24.2411 118.525 24.1776 118.964 24.1776C119.587 24.1776 120.152 24.2988 120.66 24.5411C121.168 24.7719 121.572 25.1296 121.872 25.6142C122.183 26.0988 122.339 26.7162 122.339 27.4662V33.0049H120.954V27.9508C120.954 26.9931 120.747 26.3296 120.331 25.9604C119.927 25.5796 119.425 25.3892 118.825 25.3892C118.41 25.3892 117.994 25.4873 117.579 25.6834C117.164 25.8796 116.818 26.1969 116.541 26.6354C116.275 27.0739 116.142 27.6624 116.142 28.4009V33.0049H114.758Z" fill="black"/>
<path d="M109.122 22.6892C108.81 22.6892 108.556 22.5969 108.36 22.4123C108.175 22.2161 108.083 21.9622 108.083 21.6507C108.083 21.3391 108.175 21.091 108.36 20.9064C108.556 20.7103 108.81 20.6122 109.122 20.6122C109.433 20.6122 109.681 20.7103 109.866 20.9064C110.062 21.091 110.16 21.3391 110.16 21.6507C110.16 21.9622 110.062 22.2161 109.866 22.4123C109.681 22.5969 109.433 22.6892 109.122 22.6892ZM109.814 24.3508V33.005H108.429V24.3508H109.814Z" fill="black"/>
<path d="M100.687 33.178C99.8442 33.178 99.0653 32.9991 98.3499 32.6414C97.646 32.2837 97.1037 31.776 96.7229 31.1183L97.8999 30.2702C98.1537 30.801 98.523 31.2164 99.0076 31.5164C99.5038 31.8164 100.098 31.9664 100.79 31.9664C101.402 31.9664 101.881 31.851 102.227 31.6202C102.573 31.3779 102.746 31.0663 102.746 30.6856C102.746 30.4432 102.665 30.224 102.504 30.0278C102.354 29.8201 102.06 29.6701 101.621 29.5778L99.5442 29.1451C98.7018 28.972 98.096 28.6836 97.7268 28.2797C97.3691 27.8758 97.1902 27.3739 97.1902 26.7739C97.1902 26.3008 97.3229 25.8681 97.5883 25.4757C97.8653 25.0834 98.2518 24.7719 98.748 24.5411C99.2557 24.2988 99.8499 24.1776 100.531 24.1776C101.385 24.1776 102.106 24.3449 102.694 24.6796C103.283 25.0142 103.721 25.4873 104.01 26.0988L102.85 26.8604C102.654 26.3527 102.337 25.9835 101.898 25.7527C101.46 25.5104 101.004 25.3892 100.531 25.3892C100.115 25.3892 99.7576 25.4469 99.4576 25.5623C99.1692 25.6777 98.9441 25.8392 98.7826 26.0469C98.6326 26.2431 98.5576 26.4681 98.5576 26.7219C98.5576 26.9758 98.6441 27.2123 98.8172 27.4316C98.9903 27.6393 99.3134 27.7893 99.7865 27.8816L101.95 28.3316C102.758 28.4932 103.323 28.7586 103.646 29.1278C103.969 29.4971 104.131 29.9471 104.131 30.4779C104.131 31.0202 103.987 31.4991 103.698 31.9145C103.41 32.3183 103.006 32.6299 102.487 32.8491C101.967 33.0683 101.367 33.178 100.687 33.178Z" fill="black"/>
<path d="M89.4681 33.178C88.6489 33.178 87.9161 32.9991 87.27 32.6414C86.6353 32.2837 86.1391 31.7702 85.7814 31.101C85.4237 30.4202 85.2449 29.6124 85.2449 28.6778C85.2449 27.7431 85.4237 26.9412 85.7814 26.2719C86.1391 25.5911 86.6295 25.0719 87.2526 24.7142C87.8757 24.3565 88.5854 24.1776 89.3816 24.1776C90.1893 24.1776 90.8759 24.3507 91.4413 24.6969C92.0182 25.043 92.4567 25.5161 92.7567 26.1162C93.0567 26.7046 93.2067 27.3681 93.2067 28.1066C93.2067 28.3028 93.201 28.4816 93.1894 28.6432C93.1779 28.8047 93.1606 28.949 93.1375 29.0759H86.1449V27.847H92.5317L91.8221 27.9855C91.8221 27.1547 91.5913 26.5142 91.1297 26.0642C90.6797 25.6142 90.0854 25.3892 89.347 25.3892C88.7816 25.3892 88.2911 25.5219 87.8757 25.7873C87.4719 26.0411 87.1546 26.4162 86.9238 26.9123C86.7045 27.397 86.5949 27.9855 86.5949 28.6778C86.5949 29.3586 86.7103 29.9471 86.9411 30.4432C87.1719 30.9394 87.495 31.3202 87.9104 31.5856C88.3373 31.8395 88.845 31.9664 89.4335 31.9664C90.0681 31.9664 90.5816 31.8452 90.9739 31.6029C91.3778 31.3606 91.7009 31.0317 91.9432 30.6163L93.0336 31.2567C92.8144 31.6491 92.5317 31.9895 92.1855 32.2779C91.8509 32.5664 91.4528 32.7914 90.9913 32.953C90.5412 33.103 90.0335 33.178 89.4681 33.178Z" fill="black"/>
<path d="M77.7479 33.178C76.9286 33.178 76.1959 32.9991 75.5497 32.6414C74.9151 32.2837 74.4189 31.7702 74.0612 31.101C73.7035 30.4202 73.5247 29.6124 73.5247 28.6778C73.5247 27.7431 73.7035 26.9412 74.0612 26.2719C74.4189 25.5911 74.9093 25.0719 75.5324 24.7142C76.1555 24.3565 76.8652 24.1776 77.6614 24.1776C78.4691 24.1776 79.1556 24.3507 79.7211 24.6969C80.298 25.043 80.7365 25.5161 81.0365 26.1162C81.3365 26.7046 81.4865 27.3681 81.4865 28.1066C81.4865 28.3028 81.4807 28.4816 81.4692 28.6432C81.4577 28.8047 81.4404 28.949 81.4173 29.0759H74.4247V27.847H80.8115L80.1018 27.9855C80.1018 27.1547 79.8711 26.5142 79.4095 26.0642C78.9595 25.6142 78.3652 25.3892 77.6267 25.3892C77.0613 25.3892 76.5709 25.5219 76.1555 25.7873C75.7517 26.0411 75.4343 26.4162 75.2036 26.9123C74.9843 27.397 74.8747 27.9855 74.8747 28.6778C74.8747 29.3586 74.9901 29.9471 75.2209 30.4432C75.4517 30.9394 75.7747 31.3202 76.1901 31.5856C76.6171 31.8395 77.1248 31.9664 77.7133 31.9664C78.3479 31.9664 78.8614 31.8452 79.2537 31.6029C79.6576 31.3606 79.9807 31.0317 80.223 30.6163L81.3134 31.2567C81.0942 31.6491 80.8115 31.9895 80.4653 32.2779C80.1307 32.5664 79.7326 32.7914 79.271 32.953C78.821 33.103 78.3133 33.178 77.7479 33.178Z" fill="black"/>
<path d="M65.7884 33.1779C65.3038 33.1779 64.8538 33.0914 64.4384 32.9183C64.0229 32.7452 63.6652 32.5029 63.3652 32.1914C63.0652 31.8798 62.8402 31.5279 62.6902 31.1356L62.8806 30.8932L62.7594 33.0049H61.5479V20.3698H62.9325V26.3065L62.7594 26.0469C62.9902 25.5046 63.3768 25.0603 63.9191 24.7142C64.473 24.3564 65.1018 24.1776 65.8057 24.1776C66.5211 24.1776 67.1788 24.3564 67.7789 24.7142C68.3789 25.0719 68.8578 25.5853 69.2155 26.2546C69.5732 26.9239 69.752 27.7316 69.752 28.6778C69.752 29.6124 69.5674 30.4201 69.1982 31.1009C68.8404 31.7702 68.3616 32.2837 67.7616 32.6414C67.1615 32.9991 66.5038 33.1779 65.7884 33.1779ZM65.6499 31.9664C66.5038 31.9664 67.1673 31.6663 67.6404 31.0663C68.125 30.4663 68.3674 29.6701 68.3674 28.6778C68.3674 27.6854 68.1308 26.8892 67.6577 26.2892C67.1846 25.6892 66.5211 25.3892 65.6672 25.3892C65.1249 25.3892 64.6461 25.5276 64.2306 25.8046C63.8268 26.0815 63.5095 26.4681 63.2787 26.9642C63.0479 27.4604 62.9325 28.0431 62.9325 28.7124C62.9325 29.3701 63.0421 29.9471 63.2614 30.4432C63.4922 30.9279 63.8095 31.3029 64.2133 31.5683C64.6287 31.8337 65.1076 31.9664 65.6499 31.9664Z" fill="black"/>
</svg>
