<svg width="32" height="32" viewBox="0 0 32 32" fill="none" xmlns="http://www.w3.org/2000/svg">
<mask id="path-1-inside-1_143_535" fill="white">
<path fill-rule="evenodd" clip-rule="evenodd" d="M8.66745 15.6558C12.6295 15.6558 15.8414 12.4439 15.8414 8.4819C15.8414 4.51986 12.6295 1.30799 8.66745 1.30799C4.70541 1.30799 1.49354 4.51986 1.49354 8.4819C1.49354 12.4439 4.70541 15.6558 8.66745 15.6558ZM8.66745 15.9167C12.7736 15.9167 16.1022 12.588 16.1022 8.4819C16.1022 4.37579 12.7736 1.04712 8.66745 1.04712C4.56133 1.04712 1.23267 4.37579 1.23267 8.4819C1.23267 12.588 4.56133 15.9167 8.66745 15.9167Z"/>
</mask>
<path fill-rule="evenodd" clip-rule="evenodd" d="M8.66745 15.6558C12.6295 15.6558 15.8414 12.4439 15.8414 8.4819C15.8414 4.51986 12.6295 1.30799 8.66745 1.30799C4.70541 1.30799 1.49354 4.51986 1.49354 8.4819C1.49354 12.4439 4.70541 15.6558 8.66745 15.6558ZM8.66745 15.9167C12.7736 15.9167 16.1022 12.588 16.1022 8.4819C16.1022 4.37579 12.7736 1.04712 8.66745 1.04712C4.56133 1.04712 1.23267 4.37579 1.23267 8.4819C1.23267 12.588 4.56133 15.9167 8.66745 15.9167Z" fill="black"/>
<path d="M14.8414 8.4819C14.8414 11.8917 12.0772 14.6558 8.66745 14.6558V16.6558C13.1818 16.6558 16.8414 12.9962 16.8414 8.4819H14.8414ZM8.66745 2.30799C12.0772 2.30799 14.8414 5.07214 14.8414 8.4819H16.8414C16.8414 3.96757 13.1818 0.307989 8.66745 0.307989V2.30799ZM2.49354 8.4819C2.49354 5.07214 5.25769 2.30799 8.66745 2.30799V0.307989C4.15312 0.307989 0.493536 3.96757 0.493536 8.4819H2.49354ZM8.66745 14.6558C5.25769 14.6558 2.49354 11.8917 2.49354 8.4819H0.493536C0.493536 12.9962 4.15312 16.6558 8.66745 16.6558V14.6558ZM15.1022 8.4819C15.1022 12.0357 12.2213 14.9167 8.66745 14.9167V16.9167C13.3259 16.9167 17.1022 13.1403 17.1022 8.4819H15.1022ZM8.66745 2.04712C12.2213 2.04712 15.1022 4.92807 15.1022 8.4819H17.1022C17.1022 3.8235 13.3259 0.0471191 8.66745 0.0471191V2.04712ZM2.23267 8.4819C2.23267 4.92807 5.11362 2.04712 8.66745 2.04712V0.0471191C4.00905 0.0471191 0.232666 3.8235 0.232666 8.4819H2.23267ZM8.66745 14.9167C5.11362 14.9167 2.23267 12.0357 2.23267 8.4819H0.232666C0.232666 13.1403 4.00905 16.9167 8.66745 16.9167V14.9167Z" fill="black" mask="url(#path-1-inside-1_143_535)"/>
<path fill-rule="evenodd" clip-rule="evenodd" d="M8.17238 15.8022C8.33608 15.7916 8.50118 15.7863 8.66751 15.7863C8.83385 15.7863 8.99895 15.7916 9.16265 15.8022L9.14582 16.0625C8.98772 16.0523 8.82823 16.0471 8.66751 16.0471C8.50679 16.0471 8.3473 16.0523 8.1892 16.0625L8.17238 15.8022ZM6.23489 16.1859C6.54512 16.0806 6.86439 15.9949 7.19121 15.9302L7.24184 16.1862C6.92635 16.2486 6.61817 16.3313 6.31872 16.4329L6.23489 16.1859ZM10.1438 15.9302C10.4706 15.9949 10.7899 16.0806 11.1001 16.1859L11.0163 16.4329C10.7169 16.3313 10.4087 16.2486 10.0932 16.1862L10.1438 15.9302ZM4.46407 17.0606C4.73752 16.8775 5.02359 16.7118 5.3207 16.565L5.43626 16.7989C5.14943 16.9406 4.87323 17.1006 4.60919 17.2774L4.46407 17.0606ZM12.0143 16.565C12.3114 16.7118 12.5975 16.8775 12.871 17.0606L12.7258 17.2774C12.4618 17.1006 12.1856 16.9406 11.8988 16.7989L12.0143 16.565ZM13.6557 17.6636C13.9038 17.8814 14.1376 18.1151 14.3554 18.3633L14.1593 18.5354C13.949 18.2957 13.7232 18.07 13.4836 17.8596L13.6557 17.6636ZM2.97962 18.3633C3.19741 18.1152 3.43119 17.8814 3.67934 17.6636L3.85142 17.8596C3.61178 18.07 3.38601 18.2957 3.17568 18.5354L2.97962 18.3633ZM1.88102 20.0047C2.02782 19.7075 2.19354 19.4215 2.37662 19.148L2.59339 19.2932C2.41662 19.5572 2.25662 19.8334 2.1149 20.1202L1.88102 20.0047ZM14.9584 19.148C15.1415 19.4215 15.3072 19.7075 15.454 20.0047L15.2201 20.1202C15.0784 19.8334 14.9184 19.5572 14.7416 19.2932L14.9584 19.148ZM1.24629 21.8752C1.31094 21.5483 1.39665 21.2291 1.50194 20.9188L1.74897 21.0027C1.64734 21.3021 1.56461 21.6103 1.5022 21.9258L1.24629 21.8752ZM15.8331 20.9188C15.9384 21.2291 16.0241 21.5483 16.0887 21.8752L15.8328 21.9258C15.7704 21.6103 15.6877 21.3021 15.5861 21.0027L15.8331 20.9188ZM1.10229 23.3515C1.10229 23.1851 1.10767 23.02 1.11824 22.8563L1.37857 22.8732C1.36835 23.0313 1.36316 23.1908 1.36316 23.3515C1.36316 23.5122 1.36835 23.6717 1.37857 23.8298L1.11824 23.8466C1.10767 23.6829 1.10229 23.5178 1.10229 23.3515ZM16.2168 22.8563C16.2274 23.02 16.2327 23.1851 16.2327 23.3515C16.2327 23.5178 16.2274 23.6829 16.2168 23.8466L15.9565 23.8298C15.9667 23.6717 15.9719 23.5122 15.9719 23.3515C15.9719 23.1908 15.9667 23.0313 15.9565 22.8732L16.2168 22.8563ZM1.50194 25.7841C1.39665 25.4739 1.31094 25.1546 1.24629 24.8278L1.5022 24.7771C1.56461 25.0926 1.64734 25.4008 1.74897 25.7003L1.50194 25.7841ZM16.0887 24.8278C16.0241 25.1546 15.9384 25.4739 15.8331 25.7841L15.5861 25.7003C15.6877 25.4008 15.7704 25.0926 15.8328 24.7771L16.0887 24.8278ZM2.37662 27.5549C2.19354 27.2815 2.02782 26.9954 1.88102 26.6983L2.1149 26.5827C2.25662 26.8696 2.41662 27.1457 2.59339 27.4098L2.37662 27.5549ZM15.454 26.6983C15.3072 26.9954 15.1415 27.2815 14.9584 27.5549L14.7416 27.4098C14.9184 27.1457 15.0784 26.8696 15.2201 26.5827L15.454 26.6983ZM3.67934 29.0394C3.43119 28.8216 3.19741 28.5878 2.97962 28.3396L3.17568 28.1676C3.38601 28.4072 3.61178 28.633 3.85142 28.8433L3.67934 29.0394ZM14.3554 28.3396C14.1376 28.5878 13.9038 28.8216 13.6557 29.0394L13.4836 28.8433C13.7232 28.633 13.949 28.4072 14.1593 28.1676L14.3554 28.3396ZM5.3207 30.138C5.02359 29.9912 4.73752 29.8254 4.46407 29.6424L4.60919 29.4256C4.87323 29.6024 5.14943 29.7624 5.43626 29.9041L5.3207 30.138ZM12.871 29.6424C12.5975 29.8254 12.3114 29.9912 12.0143 30.138L11.8988 29.9041C12.1856 29.7624 12.4618 29.6024 12.7258 29.4256L12.871 29.6424ZM7.19121 30.7727C6.86439 30.708 6.54512 30.6223 6.23489 30.517L6.31872 30.27C6.61817 30.3716 6.92635 30.4544 7.24184 30.5168L7.19121 30.7727ZM11.1001 30.517C10.7899 30.6223 10.4706 30.708 10.1438 30.7727L10.0932 30.5168C10.4087 30.4544 10.7169 30.3716 11.0163 30.27L11.1001 30.517ZM8.66751 30.9167C8.50118 30.9167 8.33608 30.9113 8.17238 30.9007L8.1892 30.6404C8.3473 30.6506 8.50679 30.6558 8.66751 30.6558C8.82823 30.6558 8.98772 30.6506 9.14582 30.6404L9.16265 30.9007C8.99895 30.9113 8.83385 30.9167 8.66751 30.9167Z" fill="black" stroke="black" stroke-dasharray="4 4"/>
<path fill-rule="evenodd" clip-rule="evenodd" d="M23.042 0.932636C23.2057 0.922057 23.3708 0.916687 23.5371 0.916687C23.7035 0.916687 23.8686 0.922057 24.0323 0.932636L24.0155 1.19296C23.8574 1.18275 23.6979 1.17756 23.5371 1.17756C23.3764 1.17756 23.2169 1.18275 23.0588 1.19296L23.042 0.932636ZM21.1045 1.31633C21.4147 1.21104 21.734 1.12534 22.0608 1.06068L22.1115 1.31659C21.796 1.379 21.4878 1.46174 21.1884 1.56336L21.1045 1.31633ZM25.0134 1.06068C25.3403 1.12534 25.6595 1.21104 25.9698 1.31633L25.8859 1.56336C25.5865 1.46174 25.2783 1.379 24.9628 1.31659L25.0134 1.06068ZM19.3337 2.19101C19.6071 2.00794 19.8932 1.84221 20.1903 1.69541L20.3059 1.92929C20.0191 2.07101 19.7429 2.23101 19.4788 2.40778L19.3337 2.19101ZM26.884 1.69541C27.1811 1.84221 27.4671 2.00794 27.7406 2.19101L27.5955 2.40778C27.3314 2.23101 27.0552 2.07101 26.7684 1.92929L26.884 1.69541ZM28.5253 2.79401C28.7735 3.0118 29.0072 3.24558 29.225 3.49374L29.029 3.66582C28.8186 3.42617 28.5929 3.2004 28.3532 2.99007L28.5253 2.79401ZM17.8492 3.49374C18.067 3.24558 18.3008 3.0118 18.549 2.79401L18.7211 2.99007C18.4814 3.2004 18.2556 3.42617 18.0453 3.66582L17.8492 3.49374ZM16.7507 5.13509C16.8974 4.83798 17.0632 4.55191 17.2462 4.27846L17.463 4.42359C17.2862 4.68763 17.1262 4.96382 16.9845 5.25065L16.7507 5.13509ZM29.828 4.27846C30.0111 4.55191 30.1768 4.83798 30.3236 5.13509L30.0898 5.25065C29.948 4.96382 29.788 4.68763 29.6113 4.42359L29.828 4.27846ZM16.1159 7.0056C16.1806 6.67878 16.2663 6.35951 16.3716 6.04928L16.6186 6.13312C16.517 6.43256 16.4342 6.74074 16.3718 7.05623L16.1159 7.0056ZM30.7027 6.04928C30.808 6.35951 30.8937 6.67878 30.9584 7.0056L30.7025 7.05623C30.64 6.74074 30.5573 6.43256 30.4557 6.13312L30.7027 6.04928ZM15.9719 8.4819C15.9719 8.31557 15.9773 8.15047 15.9879 7.98677L16.2482 8.00359C16.238 8.1617 16.2328 8.32118 16.2328 8.4819C16.2328 8.64262 16.238 8.80211 16.2482 8.96022L15.9879 8.97704C15.9773 8.81334 15.9719 8.64824 15.9719 8.4819ZM31.0864 7.98677C31.097 8.15047 31.1024 8.31557 31.1024 8.4819C31.1024 8.64824 31.097 8.81334 31.0864 8.97704L30.8261 8.96022C30.8363 8.80211 30.8415 8.64262 30.8415 8.4819C30.8415 8.32118 30.8363 8.1617 30.8261 8.00359L31.0864 7.98677ZM16.3716 10.9145C16.2663 10.6043 16.1806 10.285 16.1159 9.9582L16.3718 9.90758C16.4342 10.2231 16.517 10.5312 16.6186 10.8307L16.3716 10.9145ZM30.9584 9.95821C30.8937 10.285 30.808 10.6043 30.7027 10.9145L30.4557 10.8307C30.5573 10.5312 30.64 10.2231 30.7025 9.90758L30.9584 9.95821ZM17.2462 12.6854C17.0632 12.4119 16.8974 12.1258 16.7507 11.8287L16.9845 11.7132C17.1262 12 17.2862 12.2762 17.463 12.5402L17.2462 12.6854ZM30.3236 11.8287C30.1768 12.1258 30.0111 12.4119 29.828 12.6854L29.6113 12.5402C29.788 12.2762 29.948 12 30.0898 11.7132L30.3236 11.8287ZM18.549 14.1698C18.3008 13.952 18.067 13.7182 17.8492 13.4701L18.0453 13.298C18.2556 13.5376 18.4814 13.7634 18.7211 13.9737L18.549 14.1698ZM29.225 13.4701C29.0072 13.7182 28.7735 13.952 28.5253 14.1698L28.3532 13.9737C28.5929 13.7634 28.8186 13.5376 29.029 13.298L29.225 13.4701ZM20.1903 15.2684C19.8932 15.1216 19.6071 14.9559 19.3337 14.7728L19.4788 14.556C19.7429 14.7328 20.0191 14.8928 20.3059 15.0345L20.1903 15.2684ZM27.7406 14.7728C27.4671 14.9559 27.1811 15.1216 26.884 15.2684L26.7684 15.0345C27.0552 14.8928 27.3314 14.7328 27.5955 14.556L27.7406 14.7728ZM22.0608 15.9031C21.734 15.8385 21.4147 15.7528 21.1045 15.6475L21.1884 15.4004C21.4878 15.5021 21.796 15.5848 22.1115 15.6472L22.0608 15.9031ZM25.9698 15.6475C25.6595 15.7528 25.3403 15.8385 25.0134 15.9031L24.9628 15.6472C25.2783 15.5848 25.5865 15.5021 25.8859 15.4004L25.9698 15.6475ZM23.5371 16.0471C23.3708 16.0471 23.2057 16.0418 23.042 16.0312L23.0588 15.7708C23.2169 15.7811 23.3764 15.7863 23.5371 15.7863C23.6979 15.7863 23.8574 15.7811 24.0155 15.7708L24.0323 16.0312C23.8686 16.0418 23.7035 16.0471 23.5371 16.0471Z" fill="black" stroke="black" stroke-dasharray="4 4"/>
<mask id="path-5-inside-2_143_535" fill="white">
<path fill-rule="evenodd" clip-rule="evenodd" d="M23.5371 30.5254C27.4991 30.5254 30.711 27.3135 30.711 23.3515C30.711 19.3894 27.4991 16.1776 23.5371 16.1776C19.575 16.1776 16.3632 19.3894 16.3632 23.3515C16.3632 27.3135 19.575 30.5254 23.5371 30.5254ZM23.5371 30.7863C27.6432 30.7863 30.9719 27.4576 30.9719 23.3515C30.9719 19.2454 27.6432 15.9167 23.5371 15.9167C19.431 15.9167 16.1023 19.2454 16.1023 23.3515C16.1023 27.4576 19.431 30.7863 23.5371 30.7863Z"/>
</mask>
<path fill-rule="evenodd" clip-rule="evenodd" d="M23.5371 30.5254C27.4991 30.5254 30.711 27.3135 30.711 23.3515C30.711 19.3894 27.4991 16.1776 23.5371 16.1776C19.575 16.1776 16.3632 19.3894 16.3632 23.3515C16.3632 27.3135 19.575 30.5254 23.5371 30.5254ZM23.5371 30.7863C27.6432 30.7863 30.9719 27.4576 30.9719 23.3515C30.9719 19.2454 27.6432 15.9167 23.5371 15.9167C19.431 15.9167 16.1023 19.2454 16.1023 23.3515C16.1023 27.4576 19.431 30.7863 23.5371 30.7863Z" fill="black"/>
<path d="M29.711 23.3515C29.711 26.7612 26.9468 29.5254 23.5371 29.5254V31.5254C28.0514 31.5254 31.711 27.8658 31.711 23.3515H29.711ZM23.5371 17.1776C26.9468 17.1776 29.711 19.9417 29.711 23.3515H31.711C31.711 18.8371 28.0514 15.1776 23.5371 15.1776V17.1776ZM17.3632 23.3515C17.3632 19.9417 20.1273 17.1776 23.5371 17.1776V15.1776C19.0228 15.1776 15.3632 18.8371 15.3632 23.3515H17.3632ZM23.5371 29.5254C20.1273 29.5254 17.3632 26.7612 17.3632 23.3515H15.3632C15.3632 27.8658 19.0228 31.5254 23.5371 31.5254V29.5254ZM29.9719 23.3515C29.9719 26.9053 27.0909 29.7863 23.5371 29.7863V31.7863C28.1955 31.7863 31.9719 28.0099 31.9719 23.3515H29.9719ZM23.5371 16.9167C27.0909 16.9167 29.9719 19.7976 29.9719 23.3515H31.9719C31.9719 18.6931 28.1955 14.9167 23.5371 14.9167V16.9167ZM17.1023 23.3515C17.1023 19.7976 19.9832 16.9167 23.5371 16.9167V14.9167C18.8787 14.9167 15.1023 18.6931 15.1023 23.3515H17.1023ZM23.5371 29.7863C19.9832 29.7863 17.1023 26.9053 17.1023 23.3515H15.1023C15.1023 28.0099 18.8787 31.7863 23.5371 31.7863V29.7863Z" fill="black" mask="url(#path-5-inside-2_143_535)"/>
</svg>
