<svg width="214" height="69" viewBox="0 0 214 69" fill="none" xmlns="http://www.w3.org/2000/svg">
<path d="M34.6299 17.2462C34.6299 26.7285 26.943 34.4154 17.4607 34.4154C7.97842 34.4154 0.291504 26.7285 0.291504 17.2462C0.291504 7.76394 7.97842 0.0770264 17.4607 0.0770264C26.943 0.0770264 34.6299 7.76394 34.6299 17.2462Z" fill="#28FFD8"/>
<path d="M68.9683 17.2462C68.9683 26.7285 61.2814 34.4154 51.7991 34.4154C42.3168 34.4154 34.6299 26.7285 34.6299 17.2462C34.6299 7.76394 42.3168 0.0770264 51.7991 0.0770264C61.2814 0.0770264 68.9683 7.76394 68.9683 17.2462Z" fill="#D9D9D9"/>
<path fill-rule="evenodd" clip-rule="evenodd" d="M51.1823 0.01082C51.3869 0.00362667 51.5925 0 51.7989 0C52.0054 0 52.2109 0.00362673 52.4156 0.0108202L52.4102 0.164709C52.2073 0.157579 52.0035 0.153984 51.7989 0.153984C51.5943 0.153984 51.3906 0.157579 51.1877 0.164709L51.1823 0.01082ZM48.7353 0.271306C49.1372 0.19926 49.5438 0.141135 49.9548 0.0974455L49.9711 0.250567C49.5638 0.293867 49.1607 0.351473 48.7625 0.422873L48.7353 0.271306ZM53.6431 0.097446C54.0541 0.141135 54.4607 0.199261 54.8626 0.271306L54.8354 0.422874C54.4371 0.351474 54.0341 0.293867 53.6268 0.250567L53.6431 0.097446ZM46.3506 0.878308C46.7387 0.749203 47.1328 0.633511 47.5326 0.531783L47.5706 0.68101C47.1744 0.781824 46.7838 0.896475 46.3992 1.02442L46.3506 0.878308ZM56.0653 0.531784C56.465 0.633512 56.8592 0.749204 57.2473 0.878309L57.1986 1.02442C56.8141 0.896476 56.4235 0.781825 56.0273 0.681011L56.0653 0.531784ZM44.0775 1.82089C44.4435 1.63732 44.817 1.46639 45.1973 1.30868L45.2563 1.45092C44.8794 1.60722 44.5093 1.77661 44.1465 1.95854L44.0775 1.82089ZM58.4006 1.30868C58.7809 1.4664 59.1544 1.63732 59.5204 1.8209L59.4514 1.95854C59.0886 1.77661 58.7185 1.60722 58.3416 1.45092L58.4006 1.30868ZM41.9623 3.07849C42.2988 2.84441 42.644 2.62201 42.9974 2.41188L43.0761 2.54423C42.7259 2.75249 42.3837 2.9729 42.0502 3.2049L41.9623 3.07849ZM60.6004 2.41188C60.9538 2.62201 61.2991 2.84441 61.6356 3.07849L61.5477 3.2049C61.2142 2.97291 60.872 2.75249 60.5217 2.54424L60.6004 2.41188ZM40.0471 4.62372C40.3473 4.34405 40.6575 4.07497 40.9772 3.81707L41.0739 3.93691C40.7571 4.19252 40.4496 4.45921 40.152 4.7364L40.0471 4.62372ZM62.6207 3.81707C62.9403 4.07497 63.2506 4.34406 63.5508 4.62372L63.4459 4.7364C63.1483 4.45921 62.8408 4.19252 62.524 3.93691L62.6207 3.81707ZM38.3698 6.42445C38.6277 6.10481 38.8968 5.79457 39.1765 5.49432L39.2891 5.59927C39.0119 5.89686 38.7453 6.20434 38.4896 6.52115L38.3698 6.42445ZM64.4214 5.49432C64.7011 5.79457 64.9702 6.10482 65.2281 6.42446L65.1082 6.52115C64.8526 6.20435 64.5859 5.89686 64.3087 5.59927L64.4214 5.49432ZM36.9646 8.4447C37.1747 8.0913 37.3971 7.74604 37.6312 7.40953L37.7576 7.49746C37.5256 7.83098 37.3052 8.17315 37.097 8.5234L36.9646 8.4447ZM65.9666 7.40953C66.2007 7.74605 66.4231 8.0913 66.6333 8.44471L66.5009 8.5234C66.2927 8.17316 66.0722 7.83098 65.8402 7.49746L65.9666 7.40953ZM35.8614 10.6445C36.0191 10.2642 36.1901 9.89077 36.3736 9.52475L36.5113 9.59379C36.3293 9.95652 36.16 10.3266 36.0037 10.7035L35.8614 10.6445ZM67.2242 9.52476C67.4078 9.89077 67.5787 10.2642 67.7365 10.6445L67.5942 10.7035C67.4379 10.3266 67.2685 9.95652 67.0866 9.59379L67.2242 9.52476ZM35.0845 12.9798C35.1862 12.5801 35.3019 12.1859 35.431 11.7979L35.5772 11.8465C35.4492 12.231 35.3346 12.6217 35.2337 13.0178L35.0845 12.9798ZM68.1668 11.7979C68.2959 12.1859 68.4116 12.5801 68.5134 12.9798L68.3641 13.0178C68.2633 12.6217 68.1487 12.231 68.0207 11.8465L68.1668 11.7979ZM34.6502 15.4021C34.6939 14.9911 34.752 14.5844 34.824 14.1826L34.9756 14.2097C34.9042 14.608 34.8466 15.011 34.8033 15.4183L34.6502 15.4021ZM68.7738 14.1826C68.8459 14.5844 68.904 14.9911 68.9477 15.4021L68.7946 15.4183C68.7513 15.011 68.6937 14.608 68.6223 14.2098L68.7738 14.1826ZM34.5527 17.2462C34.5527 17.0398 34.5564 16.8342 34.5636 16.6295L34.7174 16.635C34.7103 16.8378 34.7067 17.0416 34.7067 17.2462C34.7067 17.4508 34.7103 17.6546 34.7174 17.8574L34.5636 17.8629C34.5564 17.6582 34.5527 17.4526 34.5527 17.2462ZM69.0343 16.6295C69.0415 16.8342 69.0451 17.0398 69.0451 17.2462C69.0451 17.4526 69.0415 17.6582 69.0343 17.8629L68.8804 17.8575C68.8876 17.6546 68.8912 17.4508 68.8912 17.2462C68.8912 17.0416 68.8876 16.8378 68.8804 16.635L69.0343 16.6295ZM34.824 20.3098C34.752 19.908 34.6939 19.5013 34.6502 19.0903L34.8033 19.0741C34.8466 19.4814 34.9042 19.8844 34.9756 20.2827L34.824 20.3098ZM68.9477 19.0903C68.904 19.5013 68.8459 19.908 68.7738 20.3098L68.6223 20.2827C68.6937 19.8844 68.7513 19.4814 68.7946 19.0741L68.9477 19.0903ZM35.431 22.6945C35.3019 22.3065 35.1862 21.9123 35.0845 21.5126L35.2337 21.4746C35.3346 21.8707 35.4492 22.2614 35.5772 22.6459L35.431 22.6945ZM68.5134 21.5126C68.4116 21.9123 68.2959 22.3065 68.1668 22.6945L68.0207 22.6459C68.1487 22.2614 68.2633 21.8707 68.3641 21.4746L68.5134 21.5126ZM36.3736 24.9676C36.1901 24.6016 36.0191 24.2282 35.8614 23.8479L36.0037 23.7889C36.16 24.1658 36.3293 24.5359 36.5113 24.8986L36.3736 24.9676ZM67.7365 23.8479C67.5787 24.2282 67.4078 24.6016 67.2242 24.9677L67.0866 24.8986C67.2685 24.5359 67.4379 24.1658 67.5942 23.7889L67.7365 23.8479ZM37.6312 27.0829C37.3971 26.7464 37.1747 26.4011 36.9646 26.0477L37.097 25.969C37.3052 26.3192 37.5256 26.6614 37.7576 26.9949L37.6312 27.0829ZM66.6333 26.0477C66.4231 26.4011 66.2007 26.7464 65.9666 27.0829L65.8402 26.9949C66.0722 26.6614 66.2926 26.3193 66.5009 25.969L66.6333 26.0477ZM39.1765 28.9981C38.8968 28.6978 38.6277 28.3876 38.3698 28.0679L38.4896 27.9713C38.7453 28.2881 39.0119 28.5955 39.2891 28.8931L39.1765 28.9981ZM65.2281 28.068C64.9702 28.3876 64.7011 28.6978 64.4214 28.9981L64.3087 28.8931C64.5859 28.5955 64.8526 28.2881 65.1082 27.9713L65.2281 28.068ZM40.9772 30.6753C40.6575 30.4174 40.3473 30.1483 40.0471 29.8687L40.152 29.756C40.4496 30.0332 40.7571 30.2999 41.0739 30.5555L40.9772 30.6753ZM63.5508 29.8687C63.2506 30.1484 62.9403 30.4174 62.6207 30.6753L62.524 30.5555C62.8408 30.2999 63.1483 30.0332 63.4459 29.756L63.5508 29.8687ZM42.9974 32.0805C42.644 31.8704 42.2988 31.648 41.9623 31.4139L42.0502 31.2875C42.3837 31.5195 42.7259 31.7399 43.0761 31.9482L42.9974 32.0805ZM61.6356 31.4139C61.2991 31.648 60.9538 31.8704 60.6004 32.0805L60.5217 31.9482C60.872 31.7399 61.2142 31.5195 61.5477 31.2875L61.6356 31.4139ZM45.1973 33.1837C44.817 33.026 44.4435 32.8551 44.0775 32.6715L44.1465 32.5339C44.5093 32.7158 44.8794 32.8852 45.2563 33.0415L45.1973 33.1837ZM59.5204 32.6715C59.1544 32.8551 58.7809 33.026 58.4006 33.1837L58.3416 33.0415C58.7185 32.8852 59.0886 32.7158 59.4513 32.5339L59.5204 32.6715ZM47.5326 33.9606C47.1328 33.8589 46.7387 33.7432 46.3506 33.6141L46.3992 33.468C46.7838 33.5959 47.1744 33.7106 47.5706 33.8114L47.5326 33.9606ZM57.2473 33.6141C56.8592 33.7432 56.465 33.8589 56.0653 33.9606L56.0273 33.8114C56.4235 33.7106 56.8141 33.5959 57.1986 33.468L57.2473 33.6141ZM49.9548 34.395C49.5438 34.3513 49.1372 34.2931 48.7353 34.2211L48.7625 34.0695C49.1607 34.1409 49.5638 34.1985 49.9711 34.2418L49.9548 34.395ZM54.8626 34.2211C54.4607 34.2931 54.054 34.3513 53.6431 34.395L53.6268 34.2418C54.0341 34.1985 54.4371 34.1409 54.8354 34.0695L54.8626 34.2211ZM51.7989 34.4924C51.5925 34.4924 51.3869 34.4888 51.1823 34.4816L51.1877 34.3277C51.3906 34.3348 51.5943 34.3384 51.7989 34.3384C52.0035 34.3384 52.2073 34.3348 52.4102 34.3277L52.4156 34.4816C52.2109 34.4888 52.0054 34.4924 51.7989 34.4924Z" fill="black"/>
<path d="M34.6299 51.5846C34.6299 61.0669 26.943 68.7538 17.4607 68.7538C7.97842 68.7538 0.291504 61.0669 0.291504 51.5846C0.291504 42.1023 7.97842 34.4154 17.4607 34.4154C26.943 34.4154 34.6299 42.1023 34.6299 51.5846Z" fill="#D9D9D9"/>
<path fill-rule="evenodd" clip-rule="evenodd" d="M16.8439 34.3492C17.0486 34.342 17.2541 34.3384 17.4606 34.3384C17.667 34.3384 17.8725 34.342 18.0772 34.3492L18.0718 34.5031C17.8689 34.496 17.6652 34.4924 17.4606 34.4924C17.2559 34.4924 17.0522 34.496 16.8493 34.5031L16.8439 34.3492ZM14.3969 34.6097C14.7988 34.5377 15.2054 34.4795 15.6164 34.4358L15.6327 34.589C15.2254 34.6323 14.8224 34.6899 14.4241 34.7613L14.3969 34.6097ZM19.3047 34.4358C19.7157 34.4795 20.1223 34.5377 20.5242 34.6097L20.497 34.7613C20.0988 34.6899 19.6957 34.6323 19.2884 34.589L19.3047 34.4358ZM12.0122 35.2167C12.4003 35.0876 12.7945 34.9719 13.1942 34.8702L13.2322 35.0194C12.836 35.1202 12.4454 35.2349 12.0608 35.3628L12.0122 35.2167ZM21.7269 34.8702C22.1267 34.9719 22.5208 35.0876 22.9089 35.2167L22.8603 35.3628C22.4757 35.2349 22.0851 35.1202 21.6889 35.0194L21.7269 34.8702ZM9.73911 36.1593C10.1051 35.9757 10.4786 35.8048 10.8589 35.6471L10.9179 35.7893C10.541 35.9456 10.1709 36.115 9.80815 36.2969L9.73911 36.1593ZM24.0622 35.6471C24.4425 35.8048 24.816 35.9757 25.182 36.1593L25.113 36.2969C24.7502 36.115 24.3801 35.9456 24.0032 35.7893L24.0622 35.6471ZM7.62389 37.4169C7.9604 37.1828 8.30566 36.9604 8.65906 36.7503L8.73776 36.8826C8.38751 37.0909 8.04534 37.3113 7.71182 37.5433L7.62389 37.4169ZM26.2621 36.7503C26.6155 36.9604 26.9607 37.1828 27.2972 37.4169L27.2093 37.5433C26.8758 37.3113 26.5336 37.0909 26.1834 36.8826L26.2621 36.7503ZM5.70868 38.9621C6.00893 38.6824 6.31917 38.4134 6.63881 38.1555L6.7355 38.2753C6.4187 38.5309 6.11121 38.7976 5.81363 39.0748L5.70868 38.9621ZM28.2823 38.1555C28.6019 38.4134 28.9122 38.6824 29.2124 38.9621L29.1075 39.0748C28.8099 38.7976 28.5024 38.5309 28.1856 38.2753L28.2823 38.1555ZM4.03143 40.7628C4.28933 40.4432 4.55841 40.133 4.83808 39.8327L4.95075 39.9377C4.67357 40.2352 4.40688 40.5427 4.15127 40.8595L4.03143 40.7628ZM30.083 39.8327C30.3627 40.133 30.6318 40.4432 30.8897 40.7629L30.7699 40.8595C30.5142 40.5427 30.2475 40.2353 29.9704 39.9377L30.083 39.8327ZM2.62624 42.7831C2.83637 42.4297 3.05877 42.0844 3.29285 41.7479L3.41926 41.8359C3.18726 42.1694 2.96685 42.5115 2.75859 42.8618L2.62624 42.7831ZM31.6283 41.7479C31.8624 42.0844 32.0848 42.4297 32.2949 42.7831L32.1625 42.8618C31.9543 42.5116 31.7339 42.1694 31.5019 41.8359L31.6283 41.7479ZM1.52304 44.9829C1.68075 44.6026 1.85168 44.2292 2.03525 43.8631L2.17289 43.9322C1.99097 44.2949 1.82157 44.665 1.66528 45.0419L1.52304 44.9829ZM32.8859 43.8632C33.0694 44.2292 33.2404 44.6026 33.3981 44.9829L33.2558 45.0419C33.0995 44.665 32.9302 44.2949 32.7482 43.9322L32.8859 43.8632ZM0.746139 47.3182C0.847868 46.9185 0.96356 46.5243 1.09266 46.1363L1.23877 46.1849C1.11083 46.5694 0.99618 46.9601 0.895367 47.3562L0.746139 47.3182ZM33.8285 46.1363C33.9576 46.5243 34.0732 46.9185 34.175 47.3182L34.0257 47.3562C33.9249 46.9601 33.8103 46.5694 33.6823 46.1849L33.8285 46.1363ZM0.311801 49.7405C0.355491 49.3295 0.413616 48.9228 0.485662 48.521L0.637229 48.5481C0.565829 48.9464 0.508223 49.3494 0.464923 49.7567L0.311801 49.7405ZM34.4355 48.521C34.5075 48.9228 34.5656 49.3295 34.6093 49.7405L34.4562 49.7567C34.4129 49.3494 34.3553 48.9464 34.2839 48.5481L34.4355 48.521ZM0.214355 51.5846C0.214355 51.3782 0.217982 51.1726 0.225176 50.9679L0.379065 50.9733C0.371934 51.1762 0.368339 51.38 0.368339 51.5846C0.368339 51.7892 0.371934 51.993 0.379064 52.1958L0.225175 52.2013C0.217982 51.9966 0.214355 51.791 0.214355 51.5846ZM34.6959 50.9679C34.7031 51.1726 34.7068 51.3782 34.7068 51.5846C34.7068 51.791 34.7031 51.9966 34.6959 52.2013L34.542 52.1958C34.5492 51.993 34.5528 51.7892 34.5528 51.5846C34.5528 51.38 34.5492 51.1762 34.542 50.9734L34.6959 50.9679ZM0.485661 54.6482C0.413616 54.2464 0.35549 53.8397 0.311801 53.4287L0.464922 53.4125C0.508222 53.8198 0.565829 54.2228 0.637229 54.621L0.485661 54.6482ZM34.6093 53.4287C34.5656 53.8397 34.5075 54.2464 34.4355 54.6482L34.2839 54.6211C34.3553 54.2228 34.4129 53.8198 34.4562 53.4125L34.6093 53.4287ZM1.09266 57.0329C0.963559 56.6449 0.847867 56.2507 0.746138 55.8509L0.895366 55.813C0.996179 56.2091 1.11083 56.5998 1.23877 56.9843L1.09266 57.0329ZM34.175 55.851C34.0732 56.2507 33.9576 56.6449 33.8285 57.0329L33.6823 56.9843C33.8103 56.5998 33.9249 56.2091 34.0257 55.813L34.175 55.851ZM2.03525 59.306C1.85168 58.94 1.68075 58.5666 1.52304 58.1863L1.66528 58.1273C1.82157 58.5042 1.99097 58.8743 2.17289 59.237L2.03525 59.306ZM33.3981 58.1863C33.2404 58.5666 33.0694 58.94 32.8859 59.306L32.7482 59.237C32.9301 58.8743 33.0995 58.5042 33.2558 58.1273L33.3981 58.1863ZM3.29285 61.4213C3.05877 61.0847 2.83637 60.7395 2.62623 60.3861L2.75859 60.3074C2.96684 60.6576 3.18726 60.9998 3.41926 61.3333L3.29285 61.4213ZM32.2949 60.3861C32.0847 60.7395 31.8623 61.0848 31.6283 61.4213L31.5019 61.3333C31.7339 60.9998 31.9543 60.6576 32.1625 60.3074L32.2949 60.3861ZM4.83807 63.3365C4.55841 63.0362 4.28933 62.726 4.03142 62.4063L4.15126 62.3096C4.40687 62.6265 4.67357 62.9339 4.95075 63.2315L4.83807 63.3365ZM30.8897 62.4063C30.6318 62.726 30.3627 63.0362 30.083 63.3365L29.9704 63.2315C30.2475 62.9339 30.5142 62.6265 30.7698 62.3097L30.8897 62.4063ZM6.63881 65.0137C6.31917 64.7558 6.00892 64.4867 5.70867 64.2071L5.81362 64.0944C6.11121 64.3716 6.4187 64.6383 6.7355 64.8939L6.63881 65.0137ZM29.2124 64.2071C28.9122 64.4867 28.6019 64.7558 28.2823 65.0137L28.1856 64.8939C28.5024 64.6383 28.8099 64.3716 29.1075 64.0944L29.2124 64.2071ZM8.65906 66.4189C8.30565 66.2088 7.9604 65.9864 7.62388 65.7523L7.71182 65.6259C8.04533 65.8579 8.38751 66.0783 8.73776 66.2866L8.65906 66.4189ZM27.2972 65.7523C26.9607 65.9864 26.6155 66.2088 26.2621 66.4189L26.1834 66.2866C26.5336 66.0783 26.8758 65.8579 27.2093 65.6259L27.2972 65.7523ZM10.8589 67.5221C10.4786 67.3644 10.1051 67.1935 9.73911 67.0099L9.80814 66.8723C10.1709 67.0542 10.541 67.2236 10.9179 67.3799L10.8589 67.5221ZM25.182 67.0099C24.816 67.1935 24.4425 67.3644 24.0622 67.5221L24.0032 67.3799C24.3801 67.2236 24.7502 67.0542 25.113 66.8723L25.182 67.0099ZM13.1942 68.299C12.7945 68.1973 12.4003 68.0816 12.0122 67.9525L12.0608 67.8064C12.4454 67.9343 12.836 68.049 13.2322 68.1498L13.1942 68.299ZM22.9089 67.9525C22.5208 68.0816 22.1267 68.1973 21.7269 68.299L21.6889 68.1498C22.0851 68.049 22.4757 67.9343 22.8603 67.8064L22.9089 67.9525ZM15.6164 68.7334C15.2054 68.6897 14.7988 68.6315 14.3969 68.5595L14.4241 68.4079C14.8223 68.4793 15.2254 68.5369 15.6327 68.5802L15.6164 68.7334ZM20.5242 68.5595C20.1223 68.6315 19.7157 68.6897 19.3047 68.7334L19.2884 68.5802C19.6957 68.5369 20.0988 68.4793 20.497 68.4079L20.5242 68.5595ZM17.4606 68.8308C17.2541 68.8308 17.0486 68.8272 16.8439 68.82L16.8493 68.6661C17.0522 68.6732 17.2559 68.6768 17.4606 68.6768C17.6652 68.6768 17.8689 68.6732 18.0718 68.6661L18.0772 68.82C17.8725 68.8272 17.667 68.8308 17.4606 68.8308Z" fill="black"/>
<path d="M68.9683 51.5846C68.9683 61.0669 61.2814 68.7538 51.7991 68.7538C42.3168 68.7538 34.6299 61.0669 34.6299 51.5846C34.6299 42.1023 42.3168 34.4154 51.7991 34.4154C61.2814 34.4154 68.9683 42.1023 68.9683 51.5846Z" fill="#D9D9D9"/>
<path d="M208.98 42.1884C207.927 42.1884 206.985 41.9585 206.154 41.4987C205.339 41.0389 204.701 40.3789 204.241 39.5186C203.781 38.6435 203.551 37.6052 203.551 36.4038C203.551 35.2024 203.781 34.1716 204.241 33.3113C204.701 32.4362 205.331 31.7688 206.132 31.309C206.933 30.8492 207.845 30.6193 208.869 30.6193C209.907 30.6193 210.789 30.8417 211.516 31.2867C212.258 31.7317 212.821 32.3398 213.207 33.1111C213.593 33.8675 213.786 34.7204 213.786 35.6696C213.786 35.9218 213.778 36.1517 213.763 36.3593C213.748 36.567 213.726 36.7524 213.697 36.9155H204.708V35.3359H212.918L212.006 35.5139C212.006 34.446 211.709 33.6228 211.116 33.0443C210.537 32.4659 209.773 32.1766 208.824 32.1766C208.097 32.1766 207.467 32.3472 206.933 32.6884C206.414 33.0147 206.006 33.4967 205.709 34.1345C205.428 34.7575 205.287 35.5139 205.287 36.4038C205.287 37.2789 205.435 38.0354 205.732 38.6732C206.028 39.311 206.444 39.8004 206.978 40.1416C207.526 40.4679 208.179 40.631 208.935 40.631C209.751 40.631 210.411 40.4753 210.915 40.1638C211.435 39.8523 211.85 39.4296 212.161 38.8956L213.563 39.7188C213.281 40.2231 212.918 40.6607 212.473 41.0315C212.043 41.4023 211.531 41.6915 210.938 41.8992C210.359 42.092 209.707 42.1884 208.98 42.1884Z" fill="black"/>
<path d="M192.401 42.1884C191.689 42.1884 191.014 42.0549 190.376 41.7879C189.753 41.521 189.241 41.0908 188.841 40.4975C188.455 39.8894 188.262 39.1033 188.262 38.1392V30.8418H190.042V37.672C190.042 38.7992 190.287 39.5779 190.777 40.0081C191.266 40.4234 191.956 40.631 192.846 40.631C193.261 40.631 193.669 40.5643 194.069 40.4308C194.47 40.2825 194.826 40.06 195.137 39.7633C195.463 39.4519 195.716 39.0588 195.894 38.5842C196.086 38.1095 196.183 37.5459 196.183 36.8933V30.8418H197.963V41.9659H196.405L196.294 40.2751C195.908 40.9425 195.382 41.432 194.714 41.7434C194.062 42.0401 193.291 42.1884 192.401 42.1884Z" fill="black"/>
<path d="M181.039 25.7246V39.1404C181.039 39.704 181.143 40.0971 181.351 40.3196C181.558 40.5272 181.892 40.631 182.352 40.631C182.648 40.631 182.893 40.6088 183.086 40.5643C183.279 40.5198 183.538 40.4382 183.865 40.3196L183.575 41.8769C183.338 41.9808 183.079 42.0549 182.797 42.0994C182.515 42.1588 182.226 42.1884 181.929 42.1884C181.024 42.1884 180.349 41.9437 179.904 41.4542C179.474 40.9648 179.259 40.2157 179.259 39.2071V25.7246H181.039Z" fill="black"/>
<path d="M168.626 42.1884C168.003 42.1884 167.424 42.0772 166.89 41.8547C166.356 41.6322 165.897 41.3207 165.511 40.9203C165.125 40.5198 164.836 40.0674 164.643 39.5631L164.888 39.2516L164.732 41.9659H163.175V25.7246H164.955V33.3558L164.732 33.0221C165.029 32.325 165.526 31.7539 166.223 31.309C166.935 30.8492 167.743 30.6193 168.648 30.6193C169.567 30.6193 170.413 30.8492 171.184 31.309C171.955 31.7688 172.571 32.4288 173.031 33.2891C173.491 34.1493 173.721 35.1876 173.721 36.4038C173.721 37.6053 173.483 38.6435 173.009 39.5186C172.549 40.3789 171.933 41.0389 171.162 41.4987C170.391 41.9585 169.545 42.1884 168.626 42.1884ZM168.448 40.631C169.545 40.631 170.398 40.2454 171.006 39.4741C171.629 38.7028 171.941 37.6794 171.941 36.4038C171.941 35.1283 171.637 34.1049 171.028 33.3336C170.42 32.5623 169.567 32.1767 168.47 32.1767C167.773 32.1767 167.157 32.3546 166.623 32.7106C166.104 33.0666 165.696 33.5635 165.4 34.2013C165.103 34.839 164.955 35.5881 164.955 36.4483C164.955 37.2938 165.096 38.0354 165.377 38.6732C165.674 39.2961 166.082 39.7782 166.601 40.1193C167.135 40.4605 167.751 40.631 168.448 40.631Z" fill="black"/>
<path d="M147.175 41.9659V30.8417H148.733L148.888 33.3336L148.599 33.0888C148.837 32.4955 149.155 32.0209 149.556 31.6649C149.956 31.2941 150.416 31.0271 150.935 30.864C151.469 30.7008 152.018 30.6193 152.582 30.6193C153.383 30.6193 154.109 30.775 154.762 31.0865C155.415 31.3831 155.934 31.8429 156.319 32.4659C156.72 33.0888 156.92 33.8824 156.92 34.8464V41.9659H155.14V35.4694C155.14 34.2383 154.873 33.3855 154.339 32.9108C153.82 32.4214 153.175 32.1766 152.404 32.1766C151.87 32.1766 151.336 32.3027 150.802 32.5549C150.268 32.807 149.823 33.2149 149.467 33.7785C149.126 34.3422 148.955 35.0986 148.955 36.0479V41.9659H147.175Z" fill="black"/>
<path d="M139.931 28.7059C139.53 28.7059 139.204 28.5873 138.952 28.3499C138.714 28.0978 138.596 27.7715 138.596 27.371C138.596 26.9705 138.714 26.6517 138.952 26.4143C139.204 26.1622 139.53 26.0361 139.931 26.0361C140.331 26.0361 140.65 26.1622 140.887 26.4143C141.139 26.6517 141.266 26.9705 141.266 27.371C141.266 27.7715 141.139 28.0978 140.887 28.3499C140.65 28.5873 140.331 28.7059 139.931 28.7059ZM140.821 30.8418V41.9659H139.041V30.8418H140.821Z" fill="black"/>
<path d="M129.088 42.1884C128.005 42.1884 127.004 41.9585 126.085 41.4987C125.18 41.0389 124.483 40.3863 123.993 39.5409L125.506 38.4507C125.832 39.133 126.307 39.6669 126.93 40.0526C127.568 40.4382 128.332 40.631 129.222 40.631C130.008 40.631 130.623 40.4827 131.068 40.1861C131.513 39.8746 131.736 39.4741 131.736 38.9846C131.736 38.6732 131.632 38.3914 131.424 38.1392C131.231 37.8722 130.853 37.6794 130.289 37.5607L127.62 37.0045C126.537 36.7821 125.758 36.4112 125.284 35.8921C124.824 35.373 124.594 34.7278 124.594 33.9565C124.594 33.3484 124.764 32.7922 125.106 32.2879C125.462 31.7836 125.958 31.3831 126.596 31.0865C127.249 30.775 128.013 30.6193 128.888 30.6193C129.985 30.6193 130.912 30.8343 131.669 31.2645C132.425 31.6946 132.989 32.3027 133.36 33.0888L131.869 34.0678C131.617 33.4151 131.209 32.9405 130.645 32.6439C130.082 32.3324 129.496 32.1766 128.888 32.1766C128.354 32.1766 127.894 32.2508 127.508 32.3991C127.138 32.5475 126.848 32.7551 126.641 33.0221C126.448 33.2742 126.351 33.5635 126.351 33.8898C126.351 34.2161 126.463 34.5201 126.685 34.802C126.908 35.0689 127.323 35.2618 127.931 35.3804L130.712 35.9589C131.75 36.1665 132.477 36.5077 132.893 36.9823C133.308 37.4569 133.515 38.0354 133.515 38.7177C133.515 39.4148 133.33 40.0303 132.959 40.5643C132.588 41.0834 132.069 41.4839 131.402 41.7657C130.734 42.0475 129.963 42.1884 129.088 42.1884Z" fill="black"/>
<path d="M114.668 42.1884C113.615 42.1884 112.673 41.9585 111.842 41.4987C111.027 41.0389 110.389 40.3789 109.929 39.5186C109.469 38.6435 109.239 37.6052 109.239 36.4038C109.239 35.2024 109.469 34.1716 109.929 33.3113C110.389 32.4362 111.019 31.7688 111.82 31.309C112.621 30.8492 113.533 30.6193 114.557 30.6193C115.595 30.6193 116.477 30.8417 117.204 31.2867C117.946 31.7317 118.509 32.3398 118.895 33.1111C119.281 33.8675 119.473 34.7204 119.473 35.6696C119.473 35.9218 119.466 36.1517 119.451 36.3593C119.436 36.567 119.414 36.7524 119.385 36.9155H110.396V35.3359H118.606L117.694 35.5139C117.694 34.446 117.397 33.6228 116.804 33.0443C116.225 32.4659 115.461 32.1766 114.512 32.1766C113.785 32.1766 113.155 32.3472 112.621 32.6884C112.102 33.0147 111.694 33.4967 111.397 34.1345C111.116 34.7575 110.975 35.5139 110.975 36.4038C110.975 37.2789 111.123 38.0354 111.42 38.6732C111.716 39.311 112.132 39.8004 112.666 40.1416C113.214 40.4679 113.867 40.631 114.623 40.631C115.439 40.631 116.099 40.4753 116.603 40.1638C117.123 39.8523 117.538 39.4296 117.849 38.8956L119.251 39.7188C118.969 40.2231 118.606 40.6607 118.161 41.0315C117.731 41.4023 117.219 41.6915 116.626 41.8992C116.047 42.092 115.395 42.1884 114.668 42.1884Z" fill="black"/>
<path d="M99.6024 42.1884C98.5493 42.1884 97.6075 41.9585 96.7769 41.4987C95.9611 41.0389 95.3233 40.3789 94.8635 39.5186C94.4037 38.6435 94.1738 37.6052 94.1738 36.4038C94.1738 35.2024 94.4037 34.1716 94.8635 33.3113C95.3233 32.4362 95.9537 31.7688 96.7546 31.309C97.5556 30.8492 98.4678 30.6193 99.4912 30.6193C100.529 30.6193 101.412 30.8417 102.139 31.2867C102.88 31.7317 103.444 32.3398 103.83 33.1111C104.215 33.8675 104.408 34.7204 104.408 35.6696C104.408 35.9218 104.401 36.1517 104.386 36.3593C104.371 36.567 104.349 36.7524 104.319 36.9155H95.3307V35.3359H103.54L102.628 35.5139C102.628 34.446 102.332 33.6228 101.738 33.0443C101.16 32.4659 100.396 32.1766 99.4467 32.1766C98.7199 32.1766 98.0895 32.3472 97.5556 32.6884C97.0364 33.0147 96.6286 33.4967 96.3319 34.1345C96.0501 34.7575 95.9092 35.5139 95.9092 36.4038C95.9092 37.2789 96.0575 38.0354 96.3542 38.6732C96.6508 39.311 97.0661 39.8004 97.6001 40.1416C98.1489 40.4679 98.8015 40.631 99.5579 40.631C100.374 40.631 101.034 40.4753 101.538 40.1638C102.057 39.8523 102.472 39.4296 102.784 38.8956L104.186 39.7188C103.904 40.2231 103.54 40.6607 103.095 41.0315C102.665 41.4023 102.154 41.6915 101.56 41.8992C100.982 42.092 100.329 42.1884 99.6024 42.1884Z" fill="black"/>
<path d="M84.2297 42.1884C83.6067 42.1884 83.0282 42.0772 82.4943 41.8547C81.9603 41.6322 81.5005 41.3207 81.1149 40.9203C80.7292 40.5198 80.44 40.0674 80.2472 39.5631L80.4919 39.2517L80.3362 41.9659H78.7788V25.7247H80.5587V33.3558L80.3362 33.0221C80.6328 32.325 81.1297 31.754 81.8268 31.309C82.5388 30.8492 83.3471 30.6193 84.2519 30.6193C85.1715 30.6193 86.0169 30.8492 86.7882 31.309C87.5595 31.7688 88.175 32.4288 88.6348 33.2891C89.0946 34.1494 89.3245 35.1876 89.3245 36.4039C89.3245 37.6053 89.0872 38.6435 88.6126 39.5186C88.1528 40.3789 87.5372 41.0389 86.766 41.4987C85.9947 41.9585 85.1493 42.1884 84.2297 42.1884ZM84.0517 40.631C85.1493 40.631 86.0021 40.2454 86.6102 39.4741C87.2332 38.7029 87.5447 37.6794 87.5447 36.4039C87.5447 35.1283 87.2406 34.1049 86.6325 33.3336C86.0244 32.5623 85.1715 32.1767 84.0739 32.1767C83.3768 32.1767 82.7613 32.3547 82.2273 32.7106C81.7082 33.0666 81.3003 33.5635 81.0036 34.2013C80.707 34.8391 80.5587 35.5881 80.5587 36.4484C80.5587 37.2938 80.6996 38.0354 80.9814 38.6732C81.278 39.2961 81.6859 39.7782 82.2051 40.1193C82.739 40.4605 83.3546 40.631 84.0517 40.631Z" fill="black"/>
</svg>
