<svg width="30" height="30" viewBox="0 0 30 30" fill="none" xmlns="http://www.w3.org/2000/svg">
<g clip-path="url(#clip0_143_549)">
<path d="M21.3541 24.3524C21.6514 24.6937 21.9648 24.9577 22.2943 25.1444C22.6239 25.332 23.0438 25.483 23.5543 25.5974L21.3541 24.3524ZM21.3541 24.3524L20.2325 24.8109M21.3541 24.3524L20.434 22.9002M19.5086 23.6922L20.434 22.9002M19.5086 23.6922L20.2325 24.8109M19.5086 23.6922L19.8337 24.0721L20.1659 23.7877M19.5086 23.6922L19.9283 23.4205L20.1659 23.7877M20.434 22.9002C20.2863 22.4143 20.2124 21.9407 20.2124 21.4795C20.2124 21.0183 20.2863 20.5452 20.434 20.0602M20.434 22.9002V20.0602M20.2325 24.8109L20.6523 24.5392L20.4271 24.1912M20.2325 24.8109L20.0434 24.348L20.4271 24.1912M20.4271 24.1912L21.1649 23.8896L21.4961 23.7542L21.7311 24.024C21.9983 24.3308 22.2691 24.5554 22.5408 24.7094L22.5417 24.7099C22.8153 24.8656 23.1846 25.0021 23.6636 25.1095L24.0088 25.1868L24.0507 25.5381L24.1432 26.3122H24.5982M20.4271 24.1912L20.1659 23.7877M20.1659 23.7877L20.7591 23.28L21.0075 23.0675L20.9124 22.7547C20.7775 22.3112 20.7124 21.8867 20.7124 21.4795C20.7124 21.0723 20.7775 20.6483 20.9123 20.2059L21.0076 19.893L20.7591 19.6803L20.1658 19.1725M20.1658 19.1725L20.4271 18.7683M20.1658 19.1725L19.9285 19.5396L19.5086 19.2682M20.1658 19.1725L19.8337 18.8883L19.5086 19.2682M20.4271 18.7683L21.1644 19.0706L21.505 19.2102L21.7395 18.9265C22.0054 18.6048 22.2709 18.3822 22.5319 18.2408M20.4271 18.7683L20.0429 18.6107L20.2325 18.1481M20.4271 18.7683L20.6525 18.4195L20.2325 18.1481M22.5319 18.2408C22.8098 18.0907 23.1829 17.9574 23.6638 17.8495L24.0088 17.772L24.0507 17.4209L24.1432 16.6468M22.5319 18.2408L22.2943 17.8008M22.5319 18.2408C22.5321 18.2407 22.5323 18.2406 22.5324 18.2405L22.2943 17.8008M24.1432 16.6468H24.5982M24.1432 16.6468H23.6993V16.1468M24.1432 16.6468L24.1958 16.2061L23.6993 16.1468M24.5982 16.6468L24.6897 17.4203L24.7313 17.772L25.0769 17.8495C25.5587 17.9575 25.9315 18.0907 26.2081 18.2405C26.4692 18.3819 26.7349 18.6046 27.001 18.9265L27.2355 19.2102L27.5761 19.0706L28.3134 18.7683M24.5982 16.6468L24.546 16.2056L25.0425 16.1468M24.5982 16.6468H25.0425V16.1468M28.3134 18.7683L28.5745 19.1722M28.3134 18.7683L28.088 18.4195L28.508 18.1481M28.3134 18.7683L28.6976 18.6107L28.508 18.1481M28.5745 19.1722L27.9817 19.6787L27.7325 19.8916L27.8284 20.2051C27.964 20.6484 28.0295 21.0726 28.0295 21.4795C28.0295 21.8864 27.964 22.3106 27.8284 22.7539L27.7325 23.0671L27.9814 23.28L28.5746 23.7877M28.5745 19.1722L28.9072 18.888L29.2319 19.2682M28.5745 19.1722L28.812 19.5396L29.2319 19.2682M28.5746 23.7877L28.3138 24.1907M28.5746 23.7877L28.8122 23.4205L29.2319 23.6922M28.5746 23.7877L28.9068 24.0721L29.2319 23.6922M28.3138 24.1907L27.5776 23.8885L27.2466 23.7526L27.0112 24.0221C26.743 24.329 26.4715 24.5545 26.1993 24.7096M28.3138 24.1907L28.6978 24.3483L28.508 24.8109M28.3138 24.1907L28.0882 24.5392L28.508 24.8109M26.1993 24.7096C25.9245 24.8656 25.5547 25.0022 25.0767 25.1095L24.7313 25.1871L24.6897 25.5386L24.5982 26.3122M26.1993 24.7096L26.4462 25.1444M26.1993 24.7096C26.1991 24.7097 26.199 24.7098 26.1988 24.7099L26.4462 25.1444M24.5982 26.3122H25.0425V26.8122L24.546 26.7534L24.5982 26.3122ZM26.4462 25.1444C26.7757 24.9568 27.0895 24.6924 27.3877 24.351M26.4462 25.1444C26.1157 25.332 25.6958 25.483 25.1862 25.5974L27.3877 24.351M27.3877 24.351L28.508 24.8109M27.3877 24.351L29.2319 23.6922M20.434 20.0602L19.5086 19.2682M20.434 20.0602L19.5086 19.2682M28.508 24.8109L29.2319 23.6922M29.2319 23.6922L28.3065 22.9002M29.2319 23.6922L28.3065 22.9002M28.3065 22.9002C28.4551 22.4143 28.5295 21.9407 28.5295 21.4795C28.5295 21.0183 28.4551 20.5447 28.3065 20.0588L29.2319 19.2682M28.3065 22.9002L28.508 18.1481M29.2319 19.2682L28.508 18.1481M28.508 18.1481L27.3864 18.6079M28.508 18.1481L27.3864 18.6079M27.3864 18.6079C27.0891 18.2483 26.7757 17.9793 26.4462 17.8008C26.1166 17.6224 25.6967 17.476 25.1862 17.3616L25.0425 16.1468M27.3864 18.6079L23.6993 16.1468M25.0425 16.1468H23.6993M23.6993 16.1468L23.5543 17.3616M23.6993 16.1468L23.5543 17.3616M23.5543 17.3616C23.0447 17.476 22.6248 17.6224 22.2943 17.8008M23.5543 17.3616L21.3541 18.6079M22.2943 17.8008C21.9648 17.9793 21.6514 18.2483 21.3541 18.6079M21.3541 18.6079L20.2325 18.1481M21.3541 18.6079L19.5086 19.2682M20.2325 18.1481L19.5086 19.2682M24.3718 24.9361C25.3001 24.9359 26.1068 24.5881 26.767 23.9145L26.7673 23.9142C27.4274 23.2396 27.7642 22.4194 27.7642 21.4795C27.7642 20.5396 27.4274 19.7197 26.767 19.0459C26.1067 18.3722 25.2999 18.0239 24.3715 18.0228C23.4422 18.0218 22.6344 18.3705 21.9732 19.0461C21.3123 19.7215 20.9756 20.5416 20.9777 21.4806C20.9798 22.4178 21.3157 23.2369 21.9719 23.9128C22.6304 24.5911 23.4401 24.9391 24.3718 24.9361ZM24.3718 24.9361C24.3721 24.9361 24.3724 24.9361 24.3727 24.9361L24.3709 24.4361V24.9361C24.3712 24.9361 24.3715 24.9361 24.3718 24.9361ZM15.7986 8.76311L15.9457 8.91341H16.156H26.6181C27.1078 8.91341 27.4932 9.07554 27.8094 9.39864C28.126 9.72218 28.2881 10.121 28.2873 10.6309V10.6316V12.9385C27.7985 12.7009 27.2924 12.5093 26.7694 12.3639C25.9712 12.142 25.1515 12.0313 24.3118 12.0313C21.6729 12.0313 19.4585 12.9766 17.7051 14.8635C15.9648 16.7361 15.0878 18.9468 15.0878 21.4726C15.0878 22.096 15.1478 22.7062 15.2683 23.3025C15.3415 23.665 15.4368 24.0259 15.5538 24.385H6.78181C6.2906 24.385 5.90538 24.2229 5.59047 23.9011C5.27484 23.5786 5.11146 23.1789 5.10986 22.6661V7.88632C5.10986 7.3751 5.27246 6.97628 5.58875 6.65377C5.90511 6.33117 6.29046 6.16895 6.77952 6.16815H13.2593L15.7986 8.76311Z" stroke="#555555"/>
</g>
<defs>
<clipPath id="clip0_143_549">
<rect width="28.5088" height="28.5088" fill="white" transform="translate(0.808716 0.916687)"/>
</clipPath>
</defs>
</svg>
