<svg width="25" height="24" viewBox="0 0 25 24" fill="none" xmlns="http://www.w3.org/2000/svg">
<path d="M3.0874 17.2589V19.8886C3.0874 20.0407 3.14782 20.1865 3.25536 20.2941C3.36289 20.4016 3.50875 20.462 3.66083 20.462H6.2963C6.44809 20.462 6.59367 20.4018 6.70114 20.2946L17.5366 9.4591L14.096 6.01854L3.25599 16.854C3.14837 16.9613 3.08774 17.1069 3.0874 17.2589ZM15.5158 4.59759L18.9564 8.03815L20.6308 6.36374C20.8458 6.14868 20.9666 5.85702 20.9666 5.55292C20.9666 5.24882 20.8458 4.95716 20.6308 4.74209L18.8131 2.92319C18.598 2.70818 18.3063 2.5874 18.0022 2.5874C17.6981 2.5874 17.4065 2.70818 17.1914 2.92319L15.5158 4.59759Z" fill="black"/>
</svg>
