<svg width="26" height="26" viewBox="0 0 26 26" fill="none" xmlns="http://www.w3.org/2000/svg">
<rect x="0.9" y="0.9" width="24.2" height="24.2" stroke="#555555" stroke-width="0.2"/>
<path fill-rule="evenodd" clip-rule="evenodd" d="M13 5C13.2546 5 13.4988 5.10114 13.6788 5.28118C13.8589 5.46121 13.96 5.70539 13.96 5.96V12.04H20.04C20.2946 12.04 20.5388 12.1411 20.7188 12.3212C20.8989 12.5012 21 12.7454 21 13C21 13.2546 20.8989 13.4988 20.7188 13.6788C20.5388 13.8589 20.2946 13.96 20.04 13.96H13.96V20.04C13.96 20.2946 13.8589 20.5388 13.6788 20.7188C13.4988 20.8989 13.2546 21 13 21C12.7454 21 12.5012 20.8989 12.3212 20.7188C12.1411 20.5388 12.04 20.2946 12.04 20.04V13.96H5.96C5.70539 13.96 5.46121 13.8589 5.28118 13.6788C5.10114 13.4988 5 13.2546 5 13C5 12.7454 5.10114 12.5012 5.28118 12.3212C5.46121 12.1411 5.70539 12.04 5.96 12.04H12.04V5.96C12.04 5.70539 12.1411 5.46121 12.3212 5.28118C12.5012 5.10114 12.7454 5 13 5Z" fill="black"/>
</svg>
