<svg width="21" height="21" viewBox="0 0 21 21" fill="none" xmlns="http://www.w3.org/2000/svg">
<path d="M11.4487 14.4764C11.4487 14.6632 11.3933 14.8458 11.2895 15.0012C11.1857 15.1565 11.0382 15.2775 10.8656 15.349C10.693 15.4205 10.5031 15.4392 10.3199 15.4028C10.1367 15.3663 9.96844 15.2764 9.83635 15.1443C9.70426 15.0122 9.61431 14.8439 9.57786 14.6607C9.54142 14.4775 9.56013 14.2876 9.63161 14.115C9.7031 13.9424 9.82415 13.7949 9.97947 13.6911C10.1348 13.5874 10.3174 13.532 10.5042 13.532C10.7547 13.532 10.9949 13.6315 11.172 13.8086C11.3492 13.9857 11.4487 14.2259 11.4487 14.4764ZM10.5042 5.97615C8.76793 5.97615 7.35594 7.24726 7.35594 8.80958V9.1244C7.35594 9.2914 7.42228 9.45155 7.54036 9.56964C7.65844 9.68772 7.8186 9.75406 7.98559 9.75406C8.15258 9.75406 8.31274 9.68772 8.43082 9.56964C8.5489 9.45155 8.61524 9.2914 8.61524 9.1244V8.80958C8.61524 7.94381 9.46291 7.23545 10.5042 7.23545C11.5455 7.23545 12.3931 7.94381 12.3931 8.80958C12.3931 9.67535 11.5455 10.3837 10.5042 10.3837C10.3372 10.3837 10.177 10.45 10.059 10.5681C9.94088 10.6862 9.87454 10.8464 9.87454 11.0134V11.643C9.87454 11.81 9.94088 11.9702 10.059 12.0882C10.177 12.2063 10.3372 12.2727 10.5042 12.2727C10.6712 12.2727 10.8313 12.2063 10.9494 12.0882C11.0675 11.9702 11.1338 11.81 11.1338 11.643V11.5863C12.5694 11.3227 13.6524 10.1775 13.6524 8.80958C13.6524 7.24726 12.2405 5.97615 10.5042 5.97615ZM18.6897 10.3837C18.6897 12.0026 18.2096 13.5852 17.3102 14.9313C16.4107 16.2774 15.1323 17.3266 13.6366 17.9461C12.1409 18.5656 10.4951 18.7277 8.90729 18.4119C7.31946 18.0961 5.86095 17.3165 4.7162 16.1717C3.57144 15.0269 2.79185 13.5684 2.47601 11.9806C2.16017 10.3928 2.32227 8.74696 2.94181 7.25126C3.56135 5.75557 4.6105 4.47717 5.95659 3.57774C7.30269 2.67831 8.88526 2.19824 10.5042 2.19824C12.6744 2.20053 14.7551 3.06366 16.2897 4.59824C17.8242 6.13282 18.6874 8.21349 18.6897 10.3837ZM17.4304 10.3837C17.4304 9.01384 17.0241 7.67474 16.2631 6.53574C15.502 5.39674 14.4203 4.50899 13.1547 3.98477C11.8891 3.46054 10.4965 3.32338 9.15297 3.59063C7.80942 3.85788 6.5753 4.51753 5.60666 5.48617C4.63802 6.45481 3.97836 7.68894 3.71112 9.03248C3.44387 10.376 3.58103 11.7686 4.10525 13.0342C4.62948 14.2998 5.51722 15.3815 6.65622 16.1426C7.79523 16.9037 9.13433 17.3099 10.5042 17.3099C12.3405 17.3078 14.101 16.5774 15.3994 15.2789C16.6979 13.9805 17.4283 12.22 17.4304 10.3837Z" fill="black"/>
</svg>
