<svg width="26" height="26" viewBox="0 0 26 26" fill="none" xmlns="http://www.w3.org/2000/svg">
<path fill-rule="evenodd" clip-rule="evenodd" d="M17.5643 16.4258L23.2102 22.0717C23.4087 22.2703 23.5201 22.5396 23.52 22.8203C23.5199 23.101 23.4083 23.3703 23.2097 23.5687C23.0111 23.7671 22.7418 23.8786 22.4611 23.8785C22.1803 23.8784 21.9111 23.7668 21.7127 23.5682L16.0668 17.9223C14.3791 19.2295 12.2567 19.8447 10.1314 19.6427C8.00621 19.4406 6.03777 18.4365 4.62657 16.8347C3.21536 15.2328 2.4674 13.1535 2.53483 11.0198C2.60227 8.88605 3.48004 6.85813 4.98958 5.34859C6.49913 3.83905 8.52704 2.96128 10.6608 2.89384C12.7945 2.82641 14.8738 3.57437 16.4757 4.98557C18.0775 6.39678 19.0816 8.36522 19.2837 10.4905C19.4857 12.6157 18.8705 14.7381 17.5633 16.4258M10.9268 17.5812C12.5967 17.5812 14.1982 16.9179 15.3791 15.737C16.5599 14.5562 17.2233 12.9547 17.2233 11.2847C17.2233 9.61479 16.5599 8.01325 15.3791 6.83242C14.1982 5.6516 12.5967 4.98822 10.9268 4.98822C9.25683 4.98822 7.65529 5.6516 6.47446 6.83242C5.29364 8.01325 4.63026 9.61479 4.63026 11.2847C4.63026 12.9547 5.29364 14.5562 6.47446 15.737C7.65529 16.9179 9.25683 17.5812 10.9268 17.5812Z" fill="black"/>
</svg>
