<svg width="35" height="35" viewBox="0 0 35 35" fill="none" xmlns="http://www.w3.org/2000/svg">
<path d="M22.6128 9.38022C22.6128 12.2203 20.3105 14.5226 17.4705 14.5226C14.6304 14.5226 12.3281 12.2203 12.3281 9.38022C12.3281 6.54017 14.6304 4.23785 17.4705 4.23785C20.3105 4.23785 22.6128 6.54017 22.6128 9.38022Z" stroke="#555555"/>
<path d="M28.2552 25.602C28.2552 27.3981 28.2284 28.7258 27.0289 29.7026C26.4099 30.2067 25.439 30.6482 23.8953 30.9607C22.3537 31.2728 20.2745 31.4496 17.4705 31.4496C14.6665 31.4496 12.5873 31.2728 11.0457 30.9607C9.50198 30.6482 8.5311 30.2067 7.91212 29.7026C6.71266 28.7258 6.68579 27.3981 6.68579 25.602C6.68579 24.1102 7.76624 22.6576 9.73629 21.5495C11.6906 20.4501 14.4241 19.7543 17.4705 19.7543C20.5169 19.7543 23.2504 20.4501 25.2047 21.5495C27.1748 22.6576 28.2552 24.1102 28.2552 25.602Z" stroke="#555555"/>
</svg>
