<svg width="35" height="35" viewBox="0 0 35 35" fill="none" xmlns="http://www.w3.org/2000/svg">
<path d="M22.6128 8.88022C22.6128 11.7203 20.3105 14.0226 17.4705 14.0226C14.6304 14.0226 12.3281 11.7203 12.3281 8.88022C12.3281 6.04017 14.6304 3.73785 17.4705 3.73785C20.3105 3.73785 22.6128 6.04017 22.6128 8.88022Z" stroke="#555555"/>
<path d="M28.2552 25.102C28.2552 26.8981 28.2284 28.2258 27.0289 29.2026C26.4099 29.7067 25.439 30.1482 23.8953 30.4607C22.3537 30.7728 20.2745 30.9496 17.4705 30.9496C14.6665 30.9496 12.5873 30.7728 11.0457 30.4607C9.50198 30.1482 8.5311 29.7067 7.91212 29.2026C6.71266 28.2258 6.68579 26.8981 6.68579 25.102C6.68579 23.6102 7.76624 22.1576 9.73629 21.0495C11.6906 19.9501 14.4241 19.2543 17.4705 19.2543C20.5169 19.2543 23.2504 19.9501 25.2047 21.0495C27.1748 22.1576 28.2552 23.6102 28.2552 25.102Z" stroke="#555555"/>
</svg>
